<mxfile host="app.diagrams.net" agent="Mozilla/5.0 (Windows NT 10.0; Win64; x64) AppleWebKit/537.36 (KHTML, like Gecko) Chrome/123.0.0.0 Safari/537.36 OPR/109.0.0.0" version="24.7.10">
  <diagram name="P치gina-1" id="w9CgM7AjvYc0iZIx4Hs-">
    <mxGraphModel dx="1161" dy="632" grid="1" gridSize="10" guides="1" tooltips="1" connect="1" arrows="1" fold="1" page="1" pageScale="1" pageWidth="827" pageHeight="1169" math="0" shadow="0">
      <root>
        <mxCell id="0" />
        <mxCell id="1" parent="0" />
        <mxCell id="FzhFjTnC4z_E8erlEicd-1" value="Procesar tabla dobles marcas" style="rounded=0;whiteSpace=wrap;html=1;" parent="1" vertex="1">
          <mxGeometry x="80" y="150" width="120" height="60" as="geometry" />
        </mxCell>
        <mxCell id="FzhFjTnC4z_E8erlEicd-2" value="Seleccionar y procesar subpreguntas" style="rounded=0;whiteSpace=wrap;html=1;" parent="1" vertex="1">
          <mxGeometry x="310" y="150" width="120" height="60" as="geometry" />
        </mxCell>
        <mxCell id="FzhFjTnC4z_E8erlEicd-3" value="Etiquetar im치genes" style="rounded=0;whiteSpace=wrap;html=1;dashed=1;" parent="1" vertex="1">
          <mxGeometry x="310" y="250" width="120" height="60" as="geometry" />
        </mxCell>
        <mxCell id="FzhFjTnC4z_E8erlEicd-4" value="Entrenar modelo" style="rounded=0;whiteSpace=wrap;html=1;dashed=1;" parent="1" vertex="1">
          <mxGeometry x="310" y="350" width="120" height="60" as="geometry" />
        </mxCell>
        <mxCell id="FzhFjTnC4z_E8erlEicd-5" value="Predecir im치genes" style="rounded=0;whiteSpace=wrap;html=1;" parent="1" vertex="1">
          <mxGeometry x="540" y="150" width="120" height="60" as="geometry" />
        </mxCell>
        <mxCell id="FzhFjTnC4z_E8erlEicd-6" value="" style="endArrow=classic;html=1;rounded=0;entryX=0;entryY=0.5;entryDx=0;entryDy=0;" parent="1" target="FzhFjTnC4z_E8erlEicd-2" edge="1">
          <mxGeometry width="50" height="50" relative="1" as="geometry">
            <mxPoint x="200" y="180" as="sourcePoint" />
            <mxPoint x="250" y="130" as="targetPoint" />
          </mxGeometry>
        </mxCell>
        <mxCell id="FzhFjTnC4z_E8erlEicd-7" value="" style="endArrow=classic;html=1;rounded=0;entryX=0;entryY=0.5;entryDx=0;entryDy=0;" parent="1" edge="1">
          <mxGeometry width="50" height="50" relative="1" as="geometry">
            <mxPoint x="430" y="179.5" as="sourcePoint" />
            <mxPoint x="540" y="179.5" as="targetPoint" />
          </mxGeometry>
        </mxCell>
        <mxCell id="FzhFjTnC4z_E8erlEicd-8" value="" style="endArrow=classic;html=1;rounded=0;" parent="1" edge="1">
          <mxGeometry width="50" height="50" relative="1" as="geometry">
            <mxPoint x="369.5" y="210" as="sourcePoint" />
            <mxPoint x="370" y="250" as="targetPoint" />
          </mxGeometry>
        </mxCell>
        <mxCell id="FzhFjTnC4z_E8erlEicd-9" value="" style="endArrow=classic;html=1;rounded=0;" parent="1" edge="1">
          <mxGeometry width="50" height="50" relative="1" as="geometry">
            <mxPoint x="369.75" y="310" as="sourcePoint" />
            <mxPoint x="370.25" y="350" as="targetPoint" />
          </mxGeometry>
        </mxCell>
        <mxCell id="FzhFjTnC4z_E8erlEicd-10" value="tabla_rutas_99" style="text;html=1;align=center;verticalAlign=middle;whiteSpace=wrap;rounded=0;" parent="1" vertex="1">
          <mxGeometry x="220" y="150" width="60" height="30" as="geometry" />
        </mxCell>
        <mxCell id="FzhFjTnC4z_E8erlEicd-11" value="im치genes subpreguntas" style="text;html=1;align=center;verticalAlign=middle;whiteSpace=wrap;rounded=0;" parent="1" vertex="1">
          <mxGeometry x="460" y="150" width="60" height="30" as="geometry" />
        </mxCell>
        <mxCell id="FzhFjTnC4z_E8erlEicd-12" value="" style="endArrow=classic;html=1;rounded=0;entryX=0.569;entryY=0.991;entryDx=0;entryDy=0;entryPerimeter=0;" parent="1" target="FzhFjTnC4z_E8erlEicd-5" edge="1">
          <mxGeometry width="50" height="50" relative="1" as="geometry">
            <mxPoint x="430" y="380" as="sourcePoint" />
            <mxPoint x="480" y="330" as="targetPoint" />
          </mxGeometry>
        </mxCell>
        <mxCell id="FzhFjTnC4z_E8erlEicd-13" value="Modelo" style="text;html=1;align=center;verticalAlign=middle;whiteSpace=wrap;rounded=0;" parent="1" vertex="1">
          <mxGeometry x="540" y="280" width="60" height="30" as="geometry" />
        </mxCell>
        <mxCell id="FzhFjTnC4z_E8erlEicd-14" value="" style="shape=partialRectangle;whiteSpace=wrap;html=1;bottom=1;right=1;left=1;top=0;fillColor=none;routingCenterX=-0.5;rotation=90;" parent="1" vertex="1">
          <mxGeometry x="190" y="310" width="185" height="30" as="geometry" />
        </mxCell>
        <mxCell id="FzhFjTnC4z_E8erlEicd-15" value="Una sola vez" style="text;strokeColor=none;fillColor=none;align=left;verticalAlign=middle;spacingLeft=4;spacingRight=4;overflow=hidden;points=[[0,0.5],[1,0.5]];portConstraint=eastwest;rotatable=0;whiteSpace=wrap;html=1;" parent="1" vertex="1">
          <mxGeometry x="180" y="300" width="80" height="30" as="geometry" />
        </mxCell>
        <mxCell id="FzhFjTnC4z_E8erlEicd-37" value="" style="endArrow=classic;html=1;rounded=0;exitX=0.549;exitY=0.014;exitDx=0;exitDy=0;exitPerimeter=0;" parent="1" edge="1">
          <mxGeometry width="50" height="50" relative="1" as="geometry">
            <mxPoint x="370.0000000000001" y="149.99999999999991" as="sourcePoint" />
            <mxPoint x="370.12" y="109.16" as="targetPoint" />
          </mxGeometry>
        </mxCell>
        <mxCell id="FzhFjTnC4z_E8erlEicd-38" value="tabla problemas_imagenes" style="text;html=1;align=center;verticalAlign=middle;whiteSpace=wrap;rounded=0;" parent="1" vertex="1">
          <mxGeometry x="340" y="80" width="60" height="30" as="geometry" />
        </mxCell>
        <mxCell id="FzhFjTnC4z_E8erlEicd-39" value="" style="endArrow=classic;html=1;rounded=0;" parent="1" edge="1">
          <mxGeometry width="50" height="50" relative="1" as="geometry">
            <mxPoint x="660" y="179.31" as="sourcePoint" />
            <mxPoint x="710" y="180" as="targetPoint" />
          </mxGeometry>
        </mxCell>
        <mxCell id="nbxXIKNAI8TdDKotA7mi-4" value="" style="edgeStyle=orthogonalEdgeStyle;rounded=0;orthogonalLoop=1;jettySize=auto;html=1;" edge="1" parent="1" source="FzhFjTnC4z_E8erlEicd-40">
          <mxGeometry relative="1" as="geometry">
            <mxPoint x="750" y="290" as="targetPoint" />
          </mxGeometry>
        </mxCell>
        <mxCell id="FzhFjTnC4z_E8erlEicd-40" value="tabla predicciones&lt;div&gt;&lt;br&gt;&lt;/div&gt;" style="text;html=1;align=center;verticalAlign=middle;whiteSpace=wrap;rounded=0;" parent="1" vertex="1">
          <mxGeometry x="680" y="140" width="60" height="30" as="geometry" />
        </mxCell>
        <mxCell id="FzhFjTnC4z_E8erlEicd-42" value="" style="shape=image;verticalLabelPosition=bottom;labelBackgroundColor=default;verticalAlign=top;aspect=fixed;imageAspect=0;image=data:image/png,iVBORw0KGgoAAAANSUhEUgAAArwAAAK8CAYAAAANumxDAAAAAXNSR0IArs4c6QAAIABJREFUeAHt3Qu0PF9a1vd3EBBEBhBhgjdQWYByUZBwUzOzjKgoUSKOsryLV0RkACGg4KCoaNRoxGhAYU2WAZV4C5BR8TYKghdAiIlEHBVQQFHuoNzNeYfe86t/T/fpOt1vde2q/em1zqo+3bve2vu7n/fdz6lTXR3hgQACCCCAAAIIIIAAAggggAACCCCAAAIIIIAAAggggAACCCCAAAIIIIAAAggggAACCCCAAAIIIIAAAggggAACCCCAAAIIIIAAAggggAACCCCAAAIIIIAAAggggAACCCCAAAIIIIAAAggggAACCCCAAAIIIIAAAggggAACCCCAAAIIIIAAAggggAACCCCAAAIIIIAAAggggAACCCCAAAIIIIAAAggggAACCCCAAAIIIIAAAggggAACCCCAAAIIIIAAAggggAACCCCAAAIIIIAAAggggAACCCCAAAIIIIAAAggggAACCCCAAAIIIIAAAggggAACCCCAAAIIIIAAAggggAACCCCAAAIIIIAAAggggAACCCCAAAIIIIAAAggggAACCCCAAAIIIIAAAggggAACCCCAAAIIIIAAAggggAACCCCAAAIIIIAAAggggAACCCCAAAIIIIAAAggggAACCCCAAAIIIIAAAggggAACCCCAAAIIIIAAAggggAACCCCAAAIIIIAAAggggAACCCCAAAIIIIAAAggggAACCCCAAAIIIIAAAggggAACCCCAAAIIIIAAAggggAACCCCAAAIIIIAAAggggAACCCCAAAIIIIAAAggggAACCCCAAAIIIIAAAggggAACCCCAAAIIIIAAAggggAACCCCAAAIlBF43It45It4/Ij4kIj46Il76EPnj/WBAAzRwpIGPi4iXRMQvjoh3iojXfnjfAwEEEEAAgS4JvGVEfFREfP6Dwf3OB4P7X/xgQAM0cIUGvjUi/mJEvF9E/KAuq51OIYAAAggMRyDP5P6liPi+KxY2ptgfBjRAA49p4JUR8UuGq6oGjAACCCDQDYEfGhGfzOg6g+cPHRq4gwZeHhEv6Kb66QgCCCCAwBAE3iEi8szLY2dmvIcPDdBApQa+JiLedYgKa5AIIIAAAqsTeM+I+CZml9mnARpYQQPfHhHvvXoV1AEEEEAAgV0TyDO7zK6zdpVn7cSip6dq4D9HxM/edaU1OAQQQACB1QjkNbsuY2BOnmpOtKeZJTTA9K62FDgwAgggsG8C+QG1JRYuMXGlARq4RgNM777XHKNDAAEE7k4gbz3mtmNMyTWmxD50s6QGmN67LwcOiAACCOyXQN5nd8lFS2x8aYAGrtUA07vftcfIEEAAgbsRyG9Qc3aXGbnWjNiPdu6hAab3bkuCAyGAAAL7JJBfF3yPBcsxcKYBGrhFA0zvPtcgo0IAAQTuQuDzGV6GnwZoYCMaYHrvsiw4CAIIILAvAq8bEd+5kYXuljND9nVmkQb2owGmd1/rkNEggAACixPIuzMwAhjQAA1sTQNM7+LLgwMggAAC+yHw/gwvw08DNLBRDTC9+1mLjAQBBBBYlMCHbHSh29rZKP11BpUGltEA07voEiE4AgggsA8CH83wOrtHAzSwcQ2k6f1Z+yjJRoEAAgggsASBl258oXPWbJmzZrjiujUNML1LrBBiIoAAAjsh8PEMr7N7NEADO9EA07uThckwEEAAgWoCDK8zeVs7k6e/NPuYBpje6lVCPAQQQGAHBBhe5uEx8+A9+tiiBpjeHSxOhoAAAghUEmB4GZotGhp9pttLGmB6K1cKsRBAAIGNE2B4GYdLxsH7NLJVDTC9G1+gdB8BBBCoIsDwMjNbNTP6TbtzNMD0Vq0W4iCAAAIbJsDwMg1zTIM2dLJlDTC9G16kdB0BBBCoIMDwMjJbNjL6Tr9zNcD0VqwYYiCAAAIbJcDwMgxzDYN2tLJ1DTC9G12odBsBBBC4lQDDy8Rs3cToPw0/RQNM762rhv0RQACBDRJgeJmFp5gFbellDxpgeje4WOkyAgggcAsBhpeB2YOBMQY6fqoGmN5bVg77IoAAAhsjwPAyCk81CtrTzF40kKb3vTdWs3UXAQQQQOAKAgwv87IX82IctHyNBpjeKxYOuyCAAAJbI8DwMgnXmAT70M2eNMD0bm3l0l8EEEDgiQQYXsZlT8bFWOj5Wg0wvU9cPDRHAAEEtkSA4WUQrjUI9qOdvWmA6d3S6qWvCCCAwBMIMLxMy95Mi/HQ9C0aYHqfsIBoigACCGyFQK+Gdyv89BMBBCJ+TkR8Z+zHaDO9VI0AAgjsjADDu7MJNRwEViLA9K4E3mERQAABBC4TYHgvM9ICAQTmEWB653HSCgEEEEDgzgQY3jsDdzgEdk6A6d35BBseAgggsEUCDO8WZ02fEeibANPb9/zoHQIIIDAcAYZ3uCk3YATuQoDpvQtmB0EAAQQQmEOA4Z1DSRsEELiGANN7DTX7IIAAAgiUE2B4y5EKiAACEwJ7M73/KSLeezI+TxFAAAEENkCA4d3AJOkiAhsnwPRufAJ1HwEEENg6AYZ36zOo/whsgwDTu4150ksEEEBglwQY3l1Oq0Eh0CUBprfLadEpBBBAYP8EGN79z7ERItATAaa3p9nQFwQQQGAQAgzvIBNtmAh0RIDp7WgydAUBBBAYgQDDO8IsGyMC/RFgevubEz1CAAEEdkuA4d3t1BoYAt0TYHq7nyIdRAABBPZBgOHdxzwaBQJbJcD0bnXm9BsBBBDYEAGGd0OTpasI7JQA07vTiTUsBBBAoBcCDG8vM6EfCIxNgOkde/6NHgEEEFiUAMO7KF7BryTwphHxjhHxHhHxwoh4kZ8hGPz+iPgvO/rJryH+lbS7mHZ/ekT85Ih48yvrjN0QQGAgAgzvQJPd8VDfLSJ+74MxeEVEfMuODM+ezJux7MuM720+vzEiXh4RH8IAd1zpdQ2BFQkwvCvCH/zQbxARHxoRr2Rwd3VWc29Gyni2Z/S/KyI+LSLecvAaa/gIIDAhwPBOYHh6NwK/NCK+htFldGmABhbUQF5S8pER8Vp3q2wOhAAC3RJgeLudml127PkR8ZkLLnDOxm3vbJw5M2dLa+BzI+JNdllRDQoBBGYTYHhno9LwRgIviIh/wuw6o0cDNLCCBr48In70jTXM7gggsGECDO+GJ29DXX/jiPinKyxyS585Et/ZSRrYjgb+dUS81Ybqpq4igEAhAYa3EKZQJwk8LyLyX4qMAQY0QANra+Armd6TddqLCOyeAMO7+ylefYAfzuwy+zRAAx1pgOldfVnQAQTuT4DhvT/zkY74FhHxbR0tdGufXXJ8ZzhpoA8NML0jrUTGisADAYaXDJYk8EnMrjN7NEADnWqA6V2y+ouNQGcEGN7OJmRH3ckPqn17pwuds2x9nGUzD+ZhbQ0wvTtadAwFgccIMLyP0fHeLQQ+kNl1Zo8GaGADGmB6b6n09kVgIwQY3o1M1Aa7+TkbWOjWPrvk+M5w0kAfGmB6N7jI6DICTyHA8D6FlrZzCeStyL6Z4XV2jwZoYEMaYHrnVnjtENggAYZ3g5O2gS6/3YYWOWfY+jjDZh7MQw8aYHo3sMDoIgLXEGB4r6Fmn0sE3pfhdWaPBmhgoxpgei9VeO8jsEECDO8GJ20DXf6gjS50PZxh0gdnOmlgfQ0wvRtYaHQRgacQYHifQkvbuQQ+iuF1do8GaGDjGmB651Z87RDYAAGGdwOTtMEu/s6NL3TOsK1/hs0cmIMeNMD0bnAB0mUEThFgeE9R8dqtBHrVVQ8LqD4wcjSwLQ0wvbeuCPZHoAMCvRqTDtDowg0EetUVo7Eto2G+zFcvGmB6b1gQ7IpADwR6NSY9sNGH6wn0qqteFk/9YORoYHsaYHqvXxPsicDqBHo1JquD0YGbCPSqKyZjeybDnJmznjTA9N60NNgZgfUI9GpM1iPiyBUEetVVTwunvjByNLBNDTC9FauEGAjcmUCvxuTOGByumECvumIwtmkwzJt5600DTG/xoiEcAksT6NWYLD1u8Zcl0Kuuels09YeRo4HtaoDpXXYdER2BUgK9GpPSQQp2dwK96oq52K65MHfmrkcNML13X14cEIHrCPRqTK4bjb16IdCrrnpcMPWJkaOBbWuA6e1l5dEPBB4h0KsxeaTL3toAgV51xVhs21iYP/PXqwaY3g0sTLo4NoFejcnYs7L90feqq14XS/1i5Ghg+xpgere/dhnBjgn0akx2jHyIofWqK6Zi+6bCHJrDnjXA9A6xxBnkFgn0aky2yFKfnxHoVVc9L5T6xsjRwD40wPQ+Wws8Q6AbAr0ak24A6chVBHrVFUOxD0NhHs1j7xpgeq9aOuyEwHIEejUmy41Y5HsQ6FVXvS+S+sfI0cB+NMD03mO1cQwEZhLo1ZjM7L5mnRLoVVfMxH7MhLk0l1vQANPb6SKlW+MR6NWYjDcT+xpxr7rawgKpj4wcDexLA0zvvtY3o9kogV6NyUZx6vaBQK+6YiT2ZSTMp/ncigaYXssjAisT6NWYrIzF4W8k0KuuXhQRfjCggadp4EuDsa4w1kzvjQuL3RG4hUCvxuSWMdl3fQJ0tf4c6AECVQRewfBGheHNGExvlSrFQeCJBBiTJwLTfBYBupqFSSMENkGA4a09w830bkL2Ork3AozJ3ma0j/HQVR/zoBcIVBBgeGsNrzO9FaoUA4EnEmBMnghM81kE6GoWJo0Q2AQBhrfe8DK9m5C+Tu6JAGOyp9nsZyx01c9c6AkCtxJgeJcxvEzvrcq0PwJPIMCYPAGWprMJ0NVsVBoi0D0Bhnc5w8v0di9/HdwLAcZkLzPZ1zjoqq/50BsEbiHQo+H9zp3dOcIH2W5RqH0RmEGAMZkBSZMnE6CrJyOzAwLdEujR8Gafeq0zedb2mh+mt9sU0LE9EOi1YOyB7chjoKuRZ9/Y90agV8ObnHutNdcYXpc37C1zjKcrAr0Wi64g6cyTCdDVk5HZAYFuCfRseBNar/WG6e1W0jo2IoFeC8WIc7GnMdPVnmbTWEYn0LvhzfnpteYwvaNnj/F3Q6DXItENIB25igBdXYXNTgh0SWALhjfB9Vp3mN4uZa1ToxHotUCMNg97Gy9d7W1GjWdkAlsxvDlHvdYepnfkDDL2Lgj0Why6gKMTVxOgq6vR2RGB7ghsyfAmvF7rD9PbnbR1aCQCvRaGkeZgj2Olqz3OqjGNSmBrhjfnqdcaxPSOmkXGvTqBXovC6mB04CYCdHUTPjsj0BWBLRreBNhrHWJ6u5K3zoxCoNeCMAr/vY6TrvY6s8Y1IoGtGt6cq15rEdM7YiYZ86oEei0Gq0Jx8JsJ0NXNCAVAoBsCWza8CbHXesT0diNxHRmBQK+FYAT2ex4jXe15do1tNAJbN7w5X73WJKZ3tGwy3tUI9FoEVgPiwCUE6KoEoyAIdEFgD4Y3QfZal5jeLmSuE3sn0GsB2Dv3vY+PrvY+w8Y3EoG9GN6cs15rE9M7UkYZ6yoEek3+VWA4aBkBuipDKRACqxPYk+FNmL3WJ6Z3danrwJ4J9Jr4e2Y+wtjoaoRZNsZRCOzN8Oa89VqjmN5Rsso4706g16S/OwgHLCVAV6U4BUNgVQJ7NLwJtNc6xfSuKncH3yuBXhN+r7xHGRddjTLTxjkCgb0a3py7XmsV0ztCZhnjXQn0mux3heBg5QToqhypgAisRmDPhjeh9lqvmN7VJO/AeyTQa6LvkfVIY6KrkWbbWPdOYO+GN+ev15rF9O49u4zvbgR6TfK7AXCgRQjQ1SJYBUVgFQIjGN4E22vdYnpXkb2D7o1Arwm+N86jjYeuRptx490zgVEMb85hr7WL6d1zhhnbXQj0mtx3GbyDLEaArhZDKzACdycwkuFNuL3WL6b37tJ3wD0R6DWx98R4xLHQ1Yizbsx7JTCa4c157LWGMb17zTLjWpxAr0m9+MAdYFECdLUoXsERuCuBEQ1vAu61jjG9d5W/g+2FQK8JvRe+o46DrkadeePeI4FRDW/OZa+1jOndY6YZ06IEek3mRQct+OIE6GpxxA6AwN0IjGx4E3Kv9YzpvVsKONAeCPSayHtgO/IY6Grk2Tf2vREY3fDmfPZa05jevWWb8SxGoNckXmzAAt+FAF3dBbODIHAXAgzvD2Duta4xvXdJAwfZOoFeE3jrXEfvP12NrgDj3xMBhvfZbPZa25jeZ3PkGQInCfSavCc768XNEKCrzUyVjiJwkQDD+1xEvdY3pve58+Q3BJ5DoNfEfU4n/bI5AnS1uSnTYQTOEmB4XxNNrzWO6X3NufIKAq8i0GvSmp5tE6Crbc+f3iMwJcDwTmk8e95rnWN6n82RZwi8mkCvCfvqDnqySQJ0tclp02kEThJgeE9iedWLvdY6pvf8nHlnUAK9Juug07GbYdPVbqbSQBAIhvdxEfRa75jex+fNu4MR6DVRB5uG3Q2XrnY3pQY0MAGG9/Lk91rzbjG9P+bysLVAYDsEek3S7RDU01ME6OoUFa8hsE0CDO+8eeu17l1rer8iIn74vKFrhUD/BHpN0P7J6eFjBOjqMTreQ2BbBBje+fPVa+271vR+XkS8zvzha4lAvwR6Tc5+ienZHAJ0NYeSNghsgwDD+7R56rX+XWt6P/Fpw9cagT4J9JqYfdLSq7kE6GouKe0Q6J8Aw/v0Oeq1Bl5jer83It756QjsgUBfBHpNyr4o6c1TCdDVU4lpj0C/BBje6+am1zp4jen9m9chsBcC/RDoNSH7IaQn1xCgq2uo2QeBPgkwvNfPS6+18BrT+1Oux2BPBNYn0Gsyrk9GD24hQFe30LMvAn0RYHhvm49e6+FTTe8fvw2DvRFYl0CvibguFUe/lQBd3UrQ/gj0Q4DhvX0ueq2JTzG9X307BhEQWI9Ar0m4HhFHriBAVxUUxUCgDwIMb8089FoXn2J6fRlFjRZEWYFArwm4AgqHLCRAV4UwhUJgZQIMb90E9Fob55re96lDIRIC9yXQa/Ldl4KjVROgq2qi4iGwHgGGt5Z9r/Vxjun9jbUoREPgfgR6Tbz7EXCkJQjQ1RJUxURgHQIMbz33XmvkJdP7MfUoRETgPgR6Tbr7jP78UZ4XEW8XEe8bER8UER8VEb/zoXny8nOZQY8LZBZyDwQQeDqBHvP5Kx+GsfVanGO4ZDB7e/+lT5ePPRDogwDD+2we3jgiPjAiPicivnmDhai3wthjf57NtmcIIDCXQI+Gt8f6MkKf0jN4ILBJAgxvxFtExCdFxLczuZs72/DUBWaTSarTCKxMgOHd3pnYp9bGue0Z3pWT0eGvJzCy4c3LFj48Ir6N0d290W3F/PpMsScC4xJgeBneVkMZ3nHrwOZHPqrhzcsXPpfRHcbotmK9+YQ1AARWIMDwMrythjK8KySgQ9YQGNHwviAi/imzO5zZzYLtgQACTyfA8DK8DO/T88YenREYzfA+PyL+CbM7pNlleDsrPrqzGQIML8PL8G4mXXX0HIHRDO9nMrvDml2G91wV8DoCjxNgeBlehvfxHPHuBgiMZHh/KbM7tNlleDdQkHSxSwIML8PL8HaZmjr1FAKjGN43iIivYXgZ3qckh7YIIPAqAgwvw8vwKgabJzCK4f1QZnd4s+sM7+bLlQGsRIDhZXgZ3pWSz2HrCIxieF/J8DK8dWkjEgJDEWB4GV6Gd6iU3+dgRzC878bsMrsHDewzi40KgWUJMLwML8O7bI6JfgcCIxje38vwMrwM7x2qiUPslQDDy/AyvHvN7oHGNYLhVawV61asB0ptQ0WgjIAaqoa2GpqewQOBTRIYwfB+izO8zvA6w7vJ+qTTfRBgeBlehrePXNSLGwjs3fC+KbPL7E40cEOq2BWBYQkwvAwvwzts+u9n4Hs3vO84MTstYW3HLd77yVwjQeB+BBjecWvm8Xrpkob75Z0jFRPYu+F9D4bXGd6JBorTRzgEhiDA8DK8zfgyvEOk/D4HuXfD+8KJ2WkJaztu8d5nFhsVAssS+NvqqBMHBw0wvMvmmugLEti74X2RQq1QTzSwYCoJjcBuCfzVSQ45YTDuCYOce4Z3t2m+/4ExvGMXr9EWr/1ntBEiUE/g0xleJw4OGmB46/NLxDsRYHgZ3pFM753SymEQ2BWB38/wMrwM765yesjBMLwML8M7ZOobNAKzCfwKhpfhZXhn54uGnRJgeBlehrfT5NQtBDoh8LYML8PL8HaSjbpxNQGGl+FleK9OHzsiMAyBr2Z6md4Htadn8EBgkwQYXoaX4d1k6uo0Ancl8EcYXob3QXEM713TzsEqCTC8DC/DW5lRYiGwTwK+tdJakWsFw7vP/B5iVAyvIsbwDpHqBonAzQRe7izv8Gd5Gd6b00iAtQgwvAwvw7tW9jkuAtsi8E4R8b1M79Cml+HdVs7q7YQAw8vwMryThPAUAQQeJfAHGF6G91GFeBOBTgkwvAwvw9tpcuoWAh0SeJ2I+PtM77Cm1xneDpNSl+YRYHgZXoZ3Xq5ohQACP0DgzSLiy5neIU0vw6sKbJYAw8vwMrybTV8dR2A1Ai+IiC9meoczvQzvainnwLcSYHgZXob31iyyPwJjEnj9iPgUpnco08vwjpnruxg1w8vwMry7SGWDQGA1Aj8zIr6M8R3C+DK8q6WZA99KgOFleBneW7PI/ggg8LyHSxz+u4jIe/V+D/O7W/PL8Mr1zRJgeBlehnez6avjCHRJ4E0i4sURkV9H/Dci4l9GxLdGxPcxwps3wgxvlymnU3MIMLzrGN4XzZmcDbfZu642PDW6jgACGyHQ48kIhncj4tHN1ySwd2OSxrLHosHwrjMvr5kBXkEAAQT6JNDj2sXw9qkVvZpBgOFdx3gxvOtwn5ESmiCAAAJdEGB4u5gGndgLAYZ3HePF8K7DfS95axwIILB/Agzv/ufYCO9IgOFdx3gxvOtwv2NqORQCCCBwEwGG9yZ8dkbguQQY3nWMF8O7Dvfnqt9vCCCAQL8EGN5+50bPNkiA4V3HeDG863DfYIrqMgIIDEqA4R104g17GQIM7zrGi+Fdh/syWSQqAgggUE+A4a1nKuLABBjedYwXw7sO94FT3dARQGBjBBjejU2Y7vZNgOFdx3gxvOtw7zsb9Q4BBBB4RoDhfcbCMwRuJsDwrmO8GN51uN+cMAIggAACdyLA8N4JtMOMQYDhXcd4MbzrcB8jq40SAQT2QIDh3cMsGkM3BBjedYwXw7sO924ST0cQQACBCwQY3guAvI3AUwgwvOsYL4Z3He5PyQ1tEUAAgTUJMLxr0nfs3RFgeNcxXgzvOtx3l8AGhAACuyXA8O52ag1sDQIM7zrGi+Fdh/saOeaYCCCAwDUEGN5rqNkHgTMEGN51jBfDuw73M2ngZQQQQKA7Agxvd1OiQ1smwPCuY7wY3nW4bzlX9R0BBMYiwPCONd9GuzABhncd4/WSiEjTu9efl8U6XC8tEAun0+zwbxIRbx8R7xURL9yxDvaqb+PaV+3KHMxczJx849lZvHzDS/VsjffTM3ggsEkCDG+fxmyNQjbCMddK0reNiI+KiL8aEV/f6R8DI8y/Map3czTw7yPi5RHxkRHxNmsVjU7rBMO7oiAc+jYCDK8FYM4CsJc2t2XL0/Z+rYj4gIj4B50uXHuZU+NQw5bWwBdExIsj4nlPKwE3t156XNfEZ3hvnlYB1iLA8Fosril6W93nXnn2nhHxpYxubFUn+q0untLAlzz8l+bd71VEOq0fDO8dBeBQtQQYXoX9VGHf62u12fOa0fIM0O+KiO/rdLHa67walzp2Lw1870N+f9ydzvbea0xPOQ7D+5p13ysbIcDwWiieUuy23nbJtHydiPhzjK6zujQwhAY+IyJee8mC0qmOGN6FJ1345QgwvAzv1k3sU/q/VCblmV1mVy49RYvabl8vn77wmd4eNcLwLrWKiLs4AYZ3+0W3x6LYa5+WSqi8jKHXMeuXuaGB5TTwsUsVlU5rCsO74IQLvSwBhne5QmiR6Y/tEtmUH1BzzW5/cy3/zMk9NJDX9L7bEoWF4V2IqrDDEmB4LQr3WBR6OUZ1ouetx9yNQQ71om/9WEeLX7TQpQ09zqczvNWriHh3I8DwrlMgeyxkI/SpOrHyPrsjcDNG80wDj2vgF1YXl05rC8O7wEQLeR8CDO/jRUyR3xef6qzypRL70od8N5/XauDzq4sLw7sAUSGHJsDwKvDXFvgt7leZ7Pl1wVtkoM/mjQaW0cBbVxaYTuuLM7zFkyzc/QgwvMsUPgtKn1wrM+ujOl2QaK9P7ZmX/c/LR1QWmE7rC8NbPMnC3Y8Aw7v/ImyhfTbHlZn1VztdkMz3s/nGAot7auCzKwtMp/WF4S2eZOHuR4DhtSDcc0FY+1iVmfX1nS5IazN2fDVlVA18XWWB6bS+MLzFkyzc/QgwvBankRanqsx6k04Xo5Hm0ljVrh418PyqItNpjWF4CydYqPsSYHgtGj0uGkv1qSq73r7TxWgpbuKqEzQwTwM/oarIdFpjGN7CCRbqvgQY3nlFTLHfB6eq7HqvThcjOt2HTs3jducxv3mx6tGjDhjeqtkV5+4EGN7tFtYei2HvfapKsBcyvG7JRgM0cEIDWRuqHj3WU4a3anbFuTsBhpfh7bGoLtWnqgR70YmFbqk+iytHaWA7GsjaUPXocd4Z3qrZFefuBBje7RTSHovf1vpUlWAMr7zZmvb19z6aZXirqqw4CBQTYHjvUwQtNn1wrkofhreP+ZRX5qE3DTC8VVVWHASKCTC8FozeFowl+1OVPgyvvFlSp2JvV18Mb1WVFQeBYgIM73YLq0Xx6XNXlT4M79PZ0ytmI2iA4a2qsuIgUEyA4bUIjbAItTFWpQ/DK2+apmxpYaoBhreqyoqDQDEBhlexnhbrvT+vSh+GV97sPVeM7zqNM7xVVVYcBIoJMLzXFTWLwTa5VaUPw7vN+Ze35m1pDTC8VVVWHASKCTC8FoClF4Ce4lelD8Mrb3rStb7oUyd/AAAgAElEQVT0o0eGt6rKioNAMQGGt59CadFafi6q0ofhXX6u5APGW9QAw1tVZcVBoJgAw2tR2eKicm2fq9KH4ZU312rQfvvWDsNbVWXFQaCYAMO77+JrcX3u/FalD8P7XK50hgcN/IAGGN6qKisOAsUEGF4L1UgLVVX6MLzyZqS8Mdb5emd4q6qsOAgUE2B45xcyRX/7rKrSh+HdvhbkszlcQgMMb1WVFQeBYgIMr6K/RNHvNWZV+jC88qZXjevXutpkeKuqrDgIFBNgeNctjhan+/KvSh+G977zJk/w3ooGGN6qKisOAsUEGF4LyVYWkop+VqUPwytvKvQoxv50xPBWVVlxECgmwPDur+BaRM/PaVX6MLznGdMfNiNrgOGtqrLiIFBMgOFdZ3F6SURkYdzrz8tiHa6XFtqq9OnV8Paoq+zTpXlZ432s5s8LVvNZMbxVVVYcBIoJMLzzC1nlolxZFIslURKOruiqCanXPw56zEGsmmoub0dgVbnmVMXK2u6BwCYJMCaMyRLCpSu6aroawZi0sd66xWo+wRFYVZnUyjgM73yNatkZAcaEMVlCknRFV01XIxiTNtZbt1jNJzgCq0qjWhWL4Z2vUS07I8CYMCZLSJKu6KrpagRj0sZ66xar+QRHYFVlUivjMLzzNaplZwQYE8ZkCUnSFV01XY1gTNpYb91iNZ/gCKwqjWpVLIZ3vka17IwAY8KYLCFJuqKrpqsRjEkb661brOYTHIFVlUmtjMPwzteolp0RYEwYkyUkSVd01XQ1gjFpY711i9V8giOwqjSqVbEY3vka1bIzAowJY7KEJOmKrpquRjAmbay3brGaT3AEVlUmtTIOwztfo1p2RoAxYUyWkCRd0VXT1QjGpI311i1W8wmOwKrSqFbFYnjna1TLzggwJozJEpKkK7pquhrBmLSx3rrFaj7BEVhVmdTKOAzvfI1q2RkBxoQxWUKSdEVXTVcjGJM21lu3WM0nOAKrSqNaFYvhna9RLTsjwJgwJktIkq7oqulqBGPSxnrrFqv5BEdgVWVSK+MwvPM1qmVnBBgTxmQJSdIVXTVdjWBM2lhv3WI1n+AIrCqNalUshne+RrXsjABjwpgsIUm6oqumqxGMSRvrrVus5hMcgVWVSa2Mw/DO16iWnRFgTBiTJSRJV3TVdDWCMWljvXWL1XyCI7CqNKpVsRje+RrVsjMCjAljsoQk6Yqumq5GMCZtrLdusZpPcARWVSa1Mg7DO1+jWnZGgDFhTJaQJF3RVdPVCMakjfXWLVbzCY7AqtKoVsVieOdrVMvOCDAmjMkSkqQrumq6GsGYtLHeusVqPsERWFWZ1Mo4DO98jWrZGQHGZB1jUlmAxJo/h1Xp1+tiSwvztYAVVktoIGtD1WOJ/t0ak+Gtml1x7k6A4VX0by2AW9q/KsEYXnmzJd3r6/30yvBWVVlxECgmwPDerxBadNZnXZU+DO/6cymfzEGPGmB4q6qsOAgUE2B4LRo9LhpL9akqfRheebOURsXdtrYY3qoqKw4CxQQY3m0XV4vj0+avKn0Y3qdxp1O8RtEAw1tVZcVBoJgAw2shGmUhynFWPRheeTNS3hjrfL0zvFVVVhwEigkwvPMLmaK/fVZV6cPwbl8L8tkcLqEBhreqyoqDQDEBhlfRX6Lo9xqzKn0YXnnTq8b1a11tMrxVVVYcBIoJMLzrFkeL0335V6UPw3vfeZMneG9FAwxvVZUVB4FiAgyvhWQrC0lFP6vSh+GVNxV6FGN/OmJ4q6qsOAgUE2B491dwLaLn57QqfRje84zpD5uRNcDwVlVZcRAoJsDwWpxGWpyq0ofhlTcj5Y2xztc7w1tVZcVBoJgAwzu/kCn622dVlT4M7/a1IJ/N4RIaYHirqqw4CBQTYHgV/SWKfq8xq9KH4ZU3vWpcv9bVJsNbVWXFQaCYAMO7bnG0ON2Xf1X6MLz3nTd5gvdWNMDwVlVZcRAoJsDwWki2spBU9LMqfRheeVOhRzH2pyOGt6rKioNAMQGGd38F1yJ6fk6r0ofhPc+Y/rAZWQMMb1WVFQeBYgIMr8VppMWpKn0YXnkzUt4Y63y9M7xVVVYcBIoJMLzzC5miv31WVenD8G5fC/LZHC6hAYa3qsqKg0AxAYZX0V+i6Pcasyp9GF5506vG9WtdbTK8VVVWHASKCTC86xZHi9N9+VelD8N733mTJ3hvRQMMb1WVFQeBYgIMr4VkKwtJRT+r0ofhlTcVehRjfzpieKuqrDgIFBNgePdXcC2i5+e0Kn0Y3vOM6Q+bkTXA8FZVWXEQKCbA8FqcRlqcqtKH4ZU3I+WNsc7XO8NbVWXFQaCYAMM7v5Ap+ttnVZU+DO/2tSCfzeESGmB4q6qsOAgUE2B4Ff0lin6vMavSh+GVN71qXL/W1SbDW1VlxUGgmADDu25xtDjdl39V+jC89503eYL3VjTA8FZVWXEQKCbA8FpItrKQVPSzKn0YXnlToUcx9qcjhreqyoqDQDEBhnd/Bdcien5Oq9KH4T3PmP6wGVkDDG9VlRUHgWICDK/FaaTFqSp9GF55M1LeGOt8vTO8VVVWHASKCTC88wuZor99VlXpw/BuXwvy2RwuoQGGt6rKioNAMQGGV9Ffouj3GrMqfRheedOrxvVrXW0yvFVVVhwEigkwvOsWR4vTfflXpQ/De995kyd4b0UDDG9VlRUHgWICDK+FZCsLSUU/q9KH4ZU3FXoUY386Ynirqqw4CBQTYHj3V3AtoufntCp9GN7zjOkPm5E1wPBWVVlxECgmwPBanEZanKrSh+GVNyPljbHO1zvDW1VlxUGgmADDO7+QKfrbZ1WVPgzv9rUgn83hEhpgeKuqrDgIFBNgeNcp+i97mMdkv9efV8Q6XC8tYFXp06vh7VFX2adL87LG+1jNnxes5rNieKuqrDgIFBNgeOcXsspFubIoFkuiJBxd0VUTUq9/HPSYg1g11VzejsCqcs2pipW13QOBTRJgTBiTJYRLV3TVdDWCMWljvXWL1XyCI7CqMqmVcRje+RrVsjMCjAljsoQk6Yqumq5GMCZtrLdusZpPcARWlUa1KhbDO1+jWnZGgDFhTJaQJF3RVdPVCMakjfXWLVbzCY7AqsqkVsZheOdrVMvOCDAmjMkSkqQrumq6GsGYtLHeusVqPsERWFUa1apYDO98jWrZGQHGhDFZQpJ0RVdNVyMYkzbWW7dYzSc4Aqsqk1oZh+Gdr1EtOyPAmDAmS0iSruiq6WoEY9LGeusWq/kER2BVaVSrYjG88zWqZWcEGBPGZAlJ0hVdNV2NYEzaWG/dYjWf4AisqkxqZRyGd75GteyMAGPCmCwhSbqiq6arEYxJG+utW6zmExyBVaVRrYrF8M7XqJadEWBMGJMlJElXdNV0NYIxaWO9dYvVfIIjsKoyqZVxGN75GtWyMwKMCWOyhCTpiq6arkYwJm2st26xmk9wBFaVRrUqFsM7X6NadkaAMWFMlpAkXdFV09UIxqSN9dYtVvMJjsCqyqRWxmF452tUy84IMCaMyRKSpCu6aroawZi0sd66xWo+wRFYVRrVqlgM73yNatkZAcaEMVlCknRFV01XIxiTNtZbt1jNJzgCqyqTWhmH4Z2vUS07I8CYMCZLSJKu6KrpagRj0sZ66xar+QRHYFVpVKtiMbzzNaplZwQYE8ZkCUnSFV01XY1gTNpYb91iNZ/gCKyqTGplHIZ3vka17IwAY8KYLCFJuqKrpqsRjEkb661brOYTHIFVpVGtisXwzteolp0RYEwYkyUkSVd01XQ1gjFpY711i9V8giOwqjKplXEY3vka1bIzAozJOsbkSyPiFTv++cpYh+ulwl6Vfr0utj3qKvt0aV7WeB+r+fOC1XxWWRuqHmvkxaVjMrxVsyvO3QkwvPML2aVC4P3+WVYlWK+Glwb716A52vccMbxVVVYcBIoJMLz7Lr4W1+fOb1X6MLzP5UpneNDAD2iA4a2qsuIgUEyA4bVQjbRQVaUPwytvRsobY52vd4a3qsqKg0AxAYZ3fiFT9LfPqip9GN7ta0E+m8MlNMDwVlVZcRAoJsDwKvpLFP1eY1alD8Mrb3rVuH6tq02Gt6rKioNAMQGGd93iaHG6L/+q9GF47ztv8gTvrWiA4a2qsuIgUEyA4bWQbGUhqehnVfowvPKmQo9i7E9HDG9VlRUHgWICDO/+Cq5F9PycVqUPw3ueMf1hM7IGGN6qKisOAsUEGF6L00iLU1X6MLzyZqS8Mdb5emd4q6qsOAgUE2B45xcyRX/7rKrSh+HdvhbkszlcQgMMb1WVFQeBYgIMr6K/RNHvNWZV+jC88qZXjevXutpkeKuqrDgIFBNgeNctjhan+/KvSh+G977zJk/w3ooGGN6qKisOAsUEGF4LyVYWkop+VqUPwytvKvQoxv50xPBWVVlxECgmwPDur+BaRM/PaVX6MLznGdMfNiNrgOGtqrLiIFBMgOG1OI20OFWlD8Mrb0bKG2Odr3eGt6rKioNAMQGGd34hU/S3z6oqfRje7WtBPpvDJTTA8FZVWXEQKCbA8Cr6SxT9XmNWpQ/DK2961bh+ratNhreqyoqDQDEBhnfd4mhxui//qvRheO87b/IE761ogOGtqrLiIFBMgOG1kGxlIanoZ1X6MLzypkKPYuxPRwxvVZUVB4FiAgzv/gquRfT8nFalD8N7njH9YTOyBhjeqiorDgLFBBhei9NIi1NV+jC88makvDHW+XpneKuqrDgIFBNgeOcXMkV/+6yq0ofh3b4W5LM5XEIDDG9VlRUHgWICDK+iv0TR7zVmVfowvPKmV43r17raZHirqqw4CBQTYHjXLY4Wp/vyr0ofhve+8yZP8N6KBhjeqiorDgLFBBheC8lWFpKKflalD8Mrbyr0KMb+dMTwVlVZcRAoJsDw7q/gWkTPz2lV+jC85xnTHzYja4Dhraqy4iBQTIDhtTiNtDhVpQ/DK29Gyhtjna93hreqyoqDQDEBhnd+IVP0t8+qKn0Y3u1rQT6bwyU0wPBWVVlxECgmwPAq+ksU/V5jVqUPwytvetW4fq2rTYa3qsqKg0AxAYZ33eJocbov/6r0YXjvO2/yBO+taIDhraqy4iBQTIDhtZBsZSGp6GdV+jC88qZCj2LsT0cMb1WVFQeBYgIM7/4KrkX0/JxWpQ/De54x/WEzsgYY3qoqKw4CxQQYXovTSItTVfowvPJmpLwx1vl6Z3irqqw4CBQTYHjnFzJFf/usqtKH4d2+FuSzOVxCAwxvVZUVB4FiAgyvor9E0e81ZlX6MLzypleN69e62mR4q6qsOAgUE2B41y2OFqf78q9KH4b3vvMmT/DeigYY3qoqKw4CxQQY3nUWki+NiFfs+OcrYx2ulxbFqvTp1fD2qKvs06V5WeN9rObPC1bzWTG8VVVWHASKCTC88wtZ5aJcWRSLJVESjq7oqgmp1z8OesxBrJpqLm9HYFW55lTFytrugcAmCTAmjMkSwqUrumq6GsGYtLHeusVqPsERWFWZ1Mo4DO98jWrZGQHGhDFZQpJ0RVdNVyMYkzbWW7dYzSc4AqtKo1oVi+Gdr1EtOyPAmDAmS0iSruiq6WoEY9LGeusWq/kER2BVZVIr4zC88zWqZWcEGBPGZAlJ0hVdNV2NYEzaWG/dYjWf4AisKo1qVSyGd75GteyMAGPCmCwhSbqiq6arEYxJG+utW6zmExyBVZVJrYzD8M7XqJadEWBMGJMlJElXdNV0NYIxaWO9dYvVfIIjsKo0qlWxGN75GtWyMwKMCWOyhCTpiq6arkYwJm2st26xmk9wBFZVJrUyDsM7X6NadkaAMWFMlpAkXdFV09UIxqSN9dYtVvMJjsCq0qhWxWJ452tUy84IMCaMyRKSpCu6aroawZi0sd66xWo+wRFYVZnUyjgM73yNatkZAcaEMVlCknRFV01XIxiTNtZbt1jNJzgCq0qjWhWL4Z2vUS07I8CYMCZLSJKu6KrpagRj0sZ66xar+QRHYFVlUivjMLzzNaplZwQYE8ZkCUnSFV01XY1gTNpYb91iNZ/gCKwqjWpVLIZ3vka17IwAY8KYLCFJuqKrpqsRjEkb661brOYTHIFVlUmtjMPwzteolp0RYEwYkyUkSVd01XQ1gjFpY711i9V8giOwqjSqVbEY3vka1bIzAowJY7KEJOmKrpquRjAmbay3brGaT3AEVlUmtTIOwztfo1p2RoAxYUyWkCRd0VXT1QjGpI311i1W8wmOwKrSqFbFYnjna1TLzggwJozJEpKkK7pquhrBmLSx3rrFaj7BEVhVmdTKOAzvfI1q2RkBxmQdY/KyBx0k+73+vCLW4XqpsFelX6+LbY+6yj5dmpc13sdq/rxgNZ9V1oaqxxp5cemYDG/V7IpzdwIM7/xCdqkQeL9/llUJ1qvhpcH+NWiO9j1HDG9VlRUHgWICDO++i6/F9bnzW5U+DO9zudIZHjTwAxpgeKuqrDgIFBNgeC1UIy1UVenD8MqbkfLGWOfrneGtqrLiIFBMgOGdX8gU/e2zqkofhnf7WpDP5nAJDTC8VVVWHASKCTC8iv4SRb/XmFXpw/DKm141rl/rapPhraqy4iBQTIDhXbc4Wpzuy78qfRje+86bPMF7KxpgeKuqrDgIFBNgeC0kW1lIKvpZlT4Mr7yp0KMY+9MRw1tVZcVBoJgAw7u/gmsRPT+nVenD8J5nTH/YjKwBhreqyoqDQDEBhtfiNNLiVJU+DK+8GSlvjHW+3hneqiorDgLFBBje+YVM0d8+q6r0YXi3rwX5bA6X0ADDW1VlxUGgmADDq+gvUfR7jVmVPgyvvOlV4/q1rjYZ3qoqKw4CxQQY3nWLo8Xpvvyr0ofhve+8yRO8t6IBhreqyoqDQDEBhtdCspWFpKKfVenD8MqbCj2KsT8dMbxVVVYcBIoJMLz7K7gW0fNzWpU+DO95xvSHzcgaYHirqqw4CBQTYHgtTiMtTlXpw/DKm5Hyxljn653hraqy4iBQTIDhnV/IFP3ts6pKH4Z3+1qQz+ZwCQ0wvFVVVhwEigkwvIr+EkW/15hV6cPwypteNa5f62qT4a2qsuIgUEyA4V23OFqc7su/Kn0Y3vvOmzzBeysaYHirqqw4CBQT2Lvh/W/CQrGVheIe/axKH4ZXXt1Dr46xPZ0xvFVVVhwEigns3fC+O8MbFs1ni2ZV+jC8z5jSFxY08EwDDG9VlRUHgWICeze8b83wMrwTDVSlD8P7bIFndrCggWcaYHirqqw4CBQT2Lvhfb2I+P6J4VGYnxXmEVlUpQ/DO7aORswdY56neYa3qsqKg0Axgb0b3sT1SobXWd6DBqrSh+Gdt/gzSTiNpgGGt6rKioNAMYERDO9nMLwML8NLA+oADdxBAwxvsUkRDoEqAiMY3g+8Q5Eb7SzGVsdblTfO8DpzudUc0O9ltcvwVlVZcRAoJjCC4X3TiPhuptfZncLcYXiXNQ1MGb5b1QDDW1hohUKgksAIhjd5fSbDy/AWJg7Dy5Bt1ZDp97LaZXgLC61QCFQSGMXwvivDy/AWJg7Du6xpYMrw3aoGGN7CQisUApUERjG8yezPM73Dm96q3GF4GbKtGjL9Xla7DG9VlRUHgWICIxnet4iIb2B6hza9VenD8C5rGpgyfLeqAYa3qsqKg0AxgZEMb6L7eRHxfUzvsKa3Kn0YXoZsq4ZMv5fVLsNbVWXFQaCYwGiGN/F9MMPL8N6YRwzvsqaBKcN3qxpgeG8srnZHYCkCIxreZPkbIuJ7GN/hjG9VHjG8DNlWDZl+L6tdhreqyoqDQDGBUQ1vYnxhRPwbpnco01uVPgzvsqaBKcN3qxpgeKuqrDgIFBMY2fAmyudHxB+KiO9kfIcwvlXpw/AyZFs1ZPq9rHYZ3qoqKw4CxQRGN7wNZ97B4RMi4qsY310b3zbft24Z3mVNA1OG71Y1wPDeWl3tj8BCBBje54J9XkS8S0R8RET82Yj44oj4dxHxXYzwLozwc2f7+t8YXoZsq4ZMv5fVLsN7fV21JwKLEmB4F8U7bPC966pXw1u52FaJF6v5JLHCakqgxz9OsrZ7ILBJAns3JpuclB10eu+6YkzmixQrrOYTmN9yBF0xvPP1oCUCFwns3ZhcBKDBIgT2rqsRFtsqYWA1nyRWWE0JMLxTGp4jcCOBvRuTG/HY/UoCe9cVYzJfGFhhNZ/A/JYj6Irhna8HLRG4SGDvxuQiAA0WIbB3XY2w2FYJA6v5JLHCakqA4Z3S8ByBGwns3ZjciMfuVxLYu64Yk/nCwAqr+QTmtxxBVwzvfD1oicBFAns3JhcBaLAIgb3raoTFtkoYWM0niRVWUwIM75SG5wjcSGDvxuRGPHa/ksDedcWYzBcGVljNJzC/5Qi6Ynjn60FLBC4S2LsxuQhAg0UI7F1XIyy2VcLAaj5JrLCaEmB4pzQ8R+BGAns3JjfisfuVBPauK8ZkvjCwwmo+gfktR9AVwztfD1oicJHA3o3JRQAaLEJg77oaYbGtEgZW80lihdWUAMM7peE5AjcS2LsxuRGP3a8ksHddMSbzhYEVVvMJzG85gq4Y3vl60BKBiwT2bkwuAtBgEQJ719UIi22VMLCaTxIrrKYEGN4pDc8RuJHA3o3JjXjsfiWBveuKMZkvDKywmk9gfssRdMXwzteDlghcJLB3Y3IRgAaLENi7rkZYbKuEgdV8klhhNSXA8E5peI7AjQT2bkxuxGP3KwnsXVeMyXxhYIXVfALzW46gK4Z3vh60ROAigb0bk4sANFiEwN51NcJiWyUMrOaTxAqrKQGGd0rDcwRuJLB3Y3IjHrtfSWDvumJM5gsDK6zmE5jfcgRdMbzz9aAlAhcJ9GpMspj52S6Dl0VEj8X6YkLMbNDrYvuSDvMm+9SjFrCaPy9YzWeVtaHq0WPepGfwQGCTBHo1vD0muj7NL/q9sqpK0l4Nb6/c9Wv7uWMO580hw1tVZcVBoJgAwzuviCn2++BUlT4M7z70IK/NY7UGGN6qKisOAsUEGF4Fv7rg9xyvKn0YXnnTs871bT19MrxVVVYcBIoJMLzrFUaL0v3ZV6UPw3v/uZMvmG9BAwxvVZUVB4FiAgyvRWQLi0hVH6vSh+GVN1WaFGdfWmJ4q6qsOAgUE2B491VsLZ6Pz2dV+jC8j3OmQ3xG1QDDW1VlxUGgmADDa2EaaWGqSh+GV96MlDfGOl/vDG9VlRUHgWICDO/8Qqbob59VVfowvNvXgnw2h0togOGtqrLiIFBMgOFV9Jco+r3GrEofhlfe9Kpx/VpXmwxvVZUVB4FiAgzvusXR4nRf/lXpw/Ded97kCd5b0QDDW1VlxUGgmADDayHZykJS0c+q9GF45U2FHsXYn44Y3qoqKw4CxQQY3v0VXIvo+TmtSh+G9zxj+sNmZA0wvFVVVhwEigkwvBankRanqvRheOXNSHljrPP1zvBWVVlxECgmwPDOL2SK/vZZVaUPw7t9Lchnc7iEBhjeqiorDgLFBBheRX+Jot9rzKr0YXjlTa8a1691tcnwVlVZcRAoJsDwrlscLU735V+VPgzvfedNnuC9FQ0wvFVVVhwEigkwvBaSrSwkFf2sSh+GV95U6FGM/emI4a2qsuIgUEyA4d1fwbWInp/TqvRheM8zpj9sRtYAw1tVZcVBoJjAS0NxHrk4jzb2qvR5obyJ0bRjvNaKORrI2lD1mHO8e7fJk2QeCGySwG+3cFu4B9JAVZK+10DM7r2gOh5juWUNvEdVkem0xjC8hRMs1H0J/OZOk2rLBU/f+12wq7Lr7eWNPxRpgAZOaODtqorMidg9rC0Mb+EEC3VfAr+g06TqIbH1oV/jeu3cVGXXG8sbZocGaOCEBt6wqsiciH1t3avcj+EtnGCh7ksg/xqtTAax8OxZA5XZ9e/ljtpBAzQw0cDXVhaYSdyeairDWzzJwt2PwGtFxLd2mlg9Jbm+7MPIV2bWy+UNs0MDNDDRwGdVFphJ3J7WH4a3eJKFuy+Bz+k0sXpKcn1heI+z8iPlDbNDAzQw0cCHHReJG3/vcd1heG+cVLuvS+DXTxK2xwTTp32YzR7msTLT3kbeMDs0QAMTDfy4ygIzidtD7Wx9YHiLJ1m4+xJ4o4j4jk6TqyWZLdNboYHqzPpCecPw0AANRMTnVReXTnXF8C4w0ULel8AndZpcFSZHDGa5aaA6q14sb5gdGqCBiHi/6uLSqa4Y3gUmWsj7EvgREfHtnSZYMyu2jOutGqjOqudFxJfIG4aHBobWwD+KiKwF1Y9b690S+zO81bMs3ioEPlzRHrpoL1Ece4u5RGK9e0R8r9yROzQwpAa+JyLedYnC0qmeGN6FJlvY+xLIW5T99U6TrDfjpD/bPNu8VEZ9nLwZ0uyoA9usA5Xz9jFLFZVOawrDu+CEC31fAm8SEf9Pp4lWWaTEGnOhWiqb8t+ZnyFvmF4aGEoDf2apgnKI2+M6xfAuPOnC35fACyLiyxTuoQp3j4V1iT4tmUmvHRGfLm/kDQ0MoYE0u5nzSz6WqIG3xmR4l5xxsVchkN8H/pkK9xCF+9YCuKX9l06mPNP7sa7plTdq5241kNfsLnkZw7RG9VhbGd7pDHm+KwK/NCLy+8F7TDx9Mi9P1cC9kvPdIuKL5I26QQO70kDejWGpD6idqk1PrW/3aM/wnpopr+2GwA+JiA+NiFcq3rsq3vcojr0d455JmWd7f2FEfL68kTc0sGkN5JdK5H12l7j12GM1qbf6mf1heB+bMe/tisB7PFy39Hsi4u9GxLco4psu4j0W06X7tFYyvnVEfEREfHZEfJ28kTc00LUG8r+an/Wwxn1YRPz4tYpGpxpheFcUhEOvS+DNIuIdI+KnRsQLI+JFfjCIiJd1WqzXzZZnR39+RPyEh9sAvqe8kS9q5uoayLUrT+a8XUTk51d6eSx9AuCa+AxvL+rQDwQQ6IJAFsVriunS+3QBRycQQACBGdVIel8AACAASURBVASWrofXxGd4Z0ycJgggMA4BhnecuTZSBBBYhsA1hnTpfRjeZeZaVAQQ2CgBhnejE6fbCCDQDYGlzes18RnebuShIwgg0AMBhreHWdAHBBDYMoFrDOnS+zC8W1aUviOAQDkBhrccqYAIIDAYgaXN6zXxGd7BRGi4CCDwOAGG93E+3kUAAQQuEbjGkC69D8N7ada8jwACQxFgeIeaboNFAIEFCCxtXq+Jz/AuMNFCIoDAdgkwvNudOz1HAIE+CFxjSJfeh+HtQxt6gQACnRBgeDuZCN1AAIHNEljavF4Tn+HdrJx0HAEEliDA8C5BVUwEEBiJwDWGdOl9GN6RFGisCCBwkQDDexGRBggggMCjBJY2r9fEZ3gfnTJvIoDAaAQY3tFm3HgRQKCawDWGdOl9GN7qWRYPAQQ2TYDh3fT06TwCCHRAYGnzek18hrcDYegCAgj0Q4Dh7Wcu9AQBBLZJ4BpDuvQ+DO82taTXCCCwEAGGdyGwwiKAwDAEljav18RneIeRn4EigMAcAgzvHEraIIAAAucJXGNIl96H4T0/X95BAIEBCTC8A066ISOAQCmBpc3rNfEZ3tIpFgwBBLZOgOHd+gzqPwIIrE3gGkO69D4M79qqcHwEEOiKQK+Gd+nFQPwIDDCggf1qgOHtaqnVGQQQWJsAw7vfBY+ZMbc0MK4GGN61V1fHRwCBrggwvOMuiMyQuaeB/WqA4e1qqdUZBBBYmwDDu98Fj5kxtzQwrgYY3rVXV8dHAIGuCDC84y6IzJC5p4H9aoDh7Wqp1RkEEFibAMO73wWPmTG3NDCuBhjetVdXx0cAga4IMLzjLojMkLmngf1qgOHtaqnVGQQQWJsAw7vfBY+ZMbc0MK4GGN61V1fHRwCBrggwvOMuiMyQuaeB/WqA4e1qqdUZBBBYmwDDu98Fj5kxtzQwrgYY3rVXV8dHAIGuCDC84y6IzJC5p4H9aoDh7Wqp1RkEEFibAMO73wWPmTG3NDCuBhjetVdXx0cAga4IMLzjLojMkLmngf1qgOHtaqnVGQQQWJsAw7vfBY+ZMbc0MK4GGN61V1fHRwCBrggwvOMuiMyQuaeB/WqA4e1qqdUZBBBYmwDDu98Fj5kxtzQwrgYY3rVXV8dHAIGuCDC84y6IzJC5p4H9aoDh7Wqp1RkEEFibAMO73wWPmTG3NDCuBhjetVdXx0cAga4IvDTGXRCYAXNPAzSwVw1kbfdAAAEEEDgQ+FiGN/a64BkXM0cD42rgd1jlEEAAAQSeEfhQhpfhpQEaoIHdaeBDnpV5zxBAAAEEPsBCt7uFzlm9cc/qmXtz3zTwYssbAggggMAzAu/K8DK8NEADNLA7DbzzszLvGQIIIIDA60fE91jsdrfYtbM8ts740cB4GviuiPjBljcEEEAAgecS+EKGl+GlARqggd1o4POeW+L9hgACCCCQBPLTvM4CYUADNEAD+9DA/2BpQwABBBB4TQI/NiK+n+ll+mmABmhg8xr4voh4y9cs815BAAEEEEgCn2Oh2/xC5+zcPs7OmUfzeIsG/pIlDQEEEEDgPIG8W4OzvBbaWxZa+9IPDayrgazhP/l8mfcOAggggEAS+FRneZ3lpQEaoIHNauCTLWUIIIAAApcJvFFE/CuL3WYXO2fX1j27hj/+a2rgX0TEG14u81oggAACCCSBd4qIb2V6mV4aoAEa2IwGviUi3sEShgACCCDwNAI/LSKygK55tsKx8acBGqCByxrIWv1eTyvxWiOAAAIINAJ5pvdfMr1MPw3QAA10q4G8jMGZ3bZq2SKAAAJXEnh+RPwpd2/odrFz9uvy2S+MMNqjBvJuDPkBNdfsXrm42Q0BBBA4ReBdHm5181ciIm9ovsfFw5jMKw3QwBY0kDU477Pr1mOnViqvIYAAAkUE3ioiPiYiPj8ivpv5Zf5pgAZoYHENfFdEfF5E5NcF+wa1osVMGAQQQGAugR8cEXnm98UR8SER8TseFr6XPuz88X4woAEaoIGrNJA1NGtp1tSsre8cEVlrPRBAAAEEEEAAAQQQQAABBBBAAAEEEEAAAQQQQAABBBBAAAEEEEAAAQQQQAABBBBAAAEEEEAAAQQQQAABBBBAAAEEEEAAAQQQQAABBBBAAAEEEEAAAQQQQAABBBBAAAEEEEAAAQQQQAABBBBAAAEEEEAAAQQQQAABBBBAAAEEEEAAAQQQQAABBBBAAAEEEEAAAQQQQAABBBBAAAEEEEAAAQQQQAABBBBAAAEEEEAAAQQQQAABBBBAAAEEEEAAAQQQQAABBBBAAAEEEEAAAQQQQAABBBBAAAEEEEAAAQQQQAABBBBAAAEEEEAAAQQQQAABBBBAAAEEEEAAAQQQQAABBBBAAAEEEEAAAQQQQAABBBBAAAEEEEAAAQQQQAABBBBAAAEEEEAAAQQQQAABBBBAAAEEEEAAAQQQQAABBBBAAAEEEEAAAQQQQAABBBBAAAEEEEAAAQQQQAABBBBAAAEEEEAAAQQQQAABBBBAAAEEEEAAAQQQQAABBBBAAAEEEEAAAQQQQAABBBBAAAEEEEAAAQQQQAABBBBAAAEEEEAAAQQQQAABBBBAAAEEEEAAAQQQQAABBBBAAAEEEEAAAQQQQAABBBBAAAEEEEAAAQQQQAABBBBAAAEEEEAAAQQQQAABBBBAAAEEEEAAAQQQQAABBBBAAAEEEEAAAQQQQAABBBBAAAEEEEAAAQQQQAABBBBAAAEEEEAAAQQQQAABBBBAAAEEEEAAAQQQQAABBBBAAAEEEEAAAQQQQAABBBBAAAEEEEAAAQQQQAABBBBAAAEEEEAAAQQQQAABBBBAAAEEEEAAAQQQQAABBBBAAAEEEEAAAQQQQAABBBBAAAEEEEAAAQQQQAABBBBAAAEEEEAAAQQQQAABBBBAAAEEEEAAAQQQQAABBBBAAAEEEEAAAQQQQAABBBBAAAEEEEAAAQQQQAABBBAYlsBbRsQnRMQ/iohvjojvjYhvjIh/GBH/Y0T8xA2S+S0Pff74w88a3f8vEZE//98TDn7NPk8I/+SmrT9t+3tnRnjZYextv6cwmHmIVzU71u33HfSbOk49/5gLwa7t37X7te7c2u8W59z21v6di7vU61vr71IcxEUAAQQQWIjAD4qI3x0R331kUNoC1LZpJP6XiHjdhfqxRNg0Wa3/S8S/FLMd+ylm75p9LvXjlvdbf9r2ax6MZGrmsccPjYhvn7DPfZ/C4LHY7b25uk1d/65H+tzG9dT+XbtfVb8bh3Pba/t3Lt7Sr2+tv0vzEB8BBBBAoJDAa0XEX5gYk699OLP7sRHxMyPiPSLi/SPif4uINLttQXr5g0HO/bbwYHhvn6U279Ptz7sQ9tdM9NL2e6qhfOwQx7r9jxHxeyLi50TEux+2eSb6Gyb9+D/O6Pba/r1rROTP2z/W0aP3Kvt9FPo1fr12XK8R6E4vbK2/d8LiMAgggAACFQReOjEEfzMi3vhM0J91dAb4N5xp19vLDO/tM9KMyPSPnr90IezfO+hquk+l4Z3q9vMj4oef6c+bRcTfn2j8d55o18ZX2b8Th3nVS5X9PneM9vo9x9WOect2a/29Zaz2RQABBBC4I4EfHRHfeTAD/zYi3vDCsf/gxDh88aTtdKF6XkR8UET8s8NZ4bx+tj3y7NaviojPi4hvjYjvefj9X0fEn4iIH9Uandi+bUT8zxHxpYf98trib4qIL4yIj4mI55/Yp/Xp3PZ4l2v79mMj4n+NiK86jOc/RMRfjoj3PBygHf8pZmq6T/brN0ZE8s5/zedlAnlt6odExOtMBpF/qPznw/wknxdM3ps+/SOTOfx10zceed76888j4pWH/bMvb35mnx8fEd9/aPc5k+M9hcGZ0K96earbf/egjTd5rPHh/WyX40hGP+KofRvfqf6lQW7v59jzutv2aK+f2q+1mW4r+z099rmcm7aZ9iOf35JTbby/7JCTqYU8k/5ZDz/vcnygye+35EpeBpK1428dPleQf0jl5wvy91/xyOUqk8N7igACCCAwKoG8rrEtih88A0Ka0rzcIX8+etK+xciF8FMmMfP1ZnjfKCL+9tF7bb/cpgE+9W/yXOS+65H9ct9/dcIwT2Ofej7pflzbtxdFxLec6VsuyL9+8l4zCdPjnnve+vsVB/Pcfj/e/uOIeNNJkM+YHC8N8fEjjVH+YZNx/tOZPxSO98nf23FzDDnv7fffdqrx4YNirc0vmLR/CoMzoV/18lS3L3ms4eS9bNf69HGT1/Npe/24f/nHVHvvy59olI8O8apfK/vd+pV9Ppdz0zbT/tyaU3nMvOa/xZ9u8w+KvMzj+HFLruQfb//gzPHasfOP33N/5B33xe8IIIAAAoMRmC4i/9UNY2+LznccFqUviIhfdLgGOM/2pdHK636zXZ75+9MPd354n4h4rwfD+GER0c6+5dnmnzTpR56FyrPAuV+etcwPzOV+eW3xB0TEF00WwbwjwPTRrq/8ykmb9tp0Qb62bz8sIvK60Tb2XHB/yWFMv/Lh2ud/Onkv2xybqWlfj5+3mG37Nw7XUievvJRkOqa/Ntn5vSfHzP4cP3765P00x3MfrR85hjQVeUYvX0sTePzIM9J5tjvfbx9um+5/3P6a36e6/ZEzA2S71o/U5/TRXp/OUZr59vr/feZsdnt/ut807vHzyn63Y5/LuTx2azPt3y051eJlnmZe/oGHM6ypqfxDdTq2PKs/fdySK699FPtLHv7L8Msj4qcetvl761f2Idt7IIAAAggg8BwCeeuxXCy+/jmvPv2XtuDkNi9XOL6Lw/tNFqXfeiJ8/qvz2w5t/s7k/TTDLfYnTl5vT9N8tffTlJx65GLf2px6/9q+5VnCFjfPXB8vtHmXgqnpnZqOU/2Yvtbi5vazT3zQKi8l+DeT4+fZs3yk2fzqyevJdfr445P38sNdcx+tP20Mf3ESJ43H9JEfdmzt80Nk+Wi/t/0PL1+9abrNy0ee8mh/oOTlMNPHcf+mZ4Pzj6o0bKcex/udajN9rbLf7di5PZVzedzWZsr9lpxq8XL7odOBRUT+QdGu185LDaaPW3Ilz0a34+YfKq83DRwRPzgi8vXWJtt7IIAAAggg8BwCbYHKaxNvebTFJrfHBijj/pXDgpQL4bnbWeVZ3xanGbW8NvOtDz9pII8feaa37TNd1Kft8vXWZvp6e35t3/LexC3uu7VgR9s8y93anOvf0S6v+rXtk9t3ONXgcKa3tUsj2x5539n2+m9vLx64tzPpeSeOc/Mw2eXVT1u8NoY0y+21T3t1qx948r8f3ssz+W0eW9u2/9EuT/71Wt22649z/+lj2r+8b3P7/csiXnW5y7Tt9HlrN3dclf1ux87tqZzLfrY20/7dklMtXl4Ok0bz+NHO7Ge76eOWXPncyTjy7hunHnm9fOvbXz/VwGsIIIAAAmMTaGecqs7w5nW4eZbx+NGMVluULm3zcoXpIy87yC+9yFuk5TWkfzIi8o4S7V/rGW+6qE/3zdfb8aavt+fX9i3Ne8bNMWf/Tj3yTGw79rn+ndqv7ZMfBDr3yOupW7s8w9ceP27ygbE8w9weP2PSPr9E5CmPdpw2hullC/khuvZhx/zwYJqhbJ9GpT2O92+vX7ttuq0+w3t8rXieEX7sutCnjquy3+3Y53Iu2bY2bd6mvK/JqRYvry0/9TiXa7fkSs5xHjfZnXvkWNq19LfWsnPH8DoCCCCAwIYJTK+7m3MNbxqb33/4mX7bVlsI/8UZFlNj2to+tv21hzi5kE2v8Z3ukwv9nDsAnFuEW1ev7Vu7tvjcmDN+XubQ+nzKdLQ+HG/bPnNjT41txnrF5LjveAj+yZPXnnLf2Ny99Wc6hundC9rdHqYf0nvxZFCn9p+8/eSnU91WXsPb+tlMVv6el2+ce7T2Uy7n2ubrlf1ux35MI63NtH+35NSpeNPx5nFam+nrt+RK2/fSf6Ha2fvMZw8EEEAAAQSeQ2D6Ses5d2n4bycL2tdNIrVFbrqwTt5+9c3/81/p0w+OnXverpn8qMnx8jZnvzki/uuj21BdOva5Rbj1r30xwVP71kzRY2dhpx+UOsem9WO6bWM6vhZy2mZ69vj4Q1jT6x5/38F4t/5Obyc3jffY89af6RjyDHN+kDDfax+Qa/e7zbNs0+u4T+3/2PEuvTfV7TV3aTi+F2/rX27zlnJ554t2N4t87Ref6VDbb8rlTNNXvVzZ7znHPtXmlpw6FW863nO51rR3Ta60fZ3hnZL2HAEEEEDgSQR+zOSWX/khqFPXyU4D/vmJAf30yRuXFsK/e9gvDdL0NlqTEPFWh7sv5HW57frAdk1g/tv81BdizDmDem4Rbse+tm/TW6z95BbsaPuBE15zTVGGaDxzey52mrDWLm9LNX28weFSi3w/b9k2veb21IcGp/ueet6OczyG/EBde++/nzw/vmSitTne/9Sx5rw21W3+4XVKG9M4+X62y37kHQaO7/nc+pcf+GsfPvyFk/GkgT/1xRZtv7njquz3nGOfanNLTp2KN+WcHFqb6eu35Mr0Gt6sDaceefeSdlzX8J4i5DUEEEAAgZh+yClvf5X3pD31yNthtUUl/834TpNG7fVzC3+arNbmj032a0/zUok0ZtkmzUUzHe2ayrzO9tSHrPJa3xb33LHz1lmtzfSsYzv2tX2bfrgpbw123L88S51fqtGOfa5/rR/Tbdsnt3mt8vQLJrJd8soz3q3d+053Pjyffggw72CRbfPfvaeM24ndn/NSO87xGH7+pA/tGsps+zbP2ftZP4/3P2r2pF+nus1rmM+NK79pLd9vY8izrMeP9t5x//7PyX5/7ninyXvH+51o+uqXqvp9rs+vPtCZ/t2SU5eOmRxam2k/bsmV6VdU538y2h/DLf7xXRp+dXvDFgEEEEAAgSmBNGr5NbFtocp/7f+OB5OQly/kGZW8t2z+m7e9n9uPmAaYvHdu4f8hhw+VtRh/9nDvzoyf99TMT8O3937TJPb0Hpt55ibPuuUntX/u4YNr7fq+3Df//Z9neo4f+eUMLXbe+D/vqDBtd23f8izq1NDmmeK8K0PGzmuQ2zWF7djn2Bz3N39v+7RtXvuZ5j5j5+UKU7Ob4zv1QcH85H7bv23zjhTXPNr+x2NI7eS9dtv7uc3rh48f7f3j/bNdey+3T3kc6zY/YJZm8mcf5ji3eVu0dslKxs/rcY//MMljtj4c9y+/Ga3dLi/b5Fns6ePcftM2x8+r+j3n2Kfa3JJTp+JNx5f8Wpvp67fkSv6xN83h7H9+w1vmQm6n48lvIGx/LE+P7zkCCCCAAAKvIpCGKc98ta8ZbovW8TY/gZ9fc3v8aO2ODcO0Xd5eLD/d3dqe2h7fazfv6drOSJ1qn0a5fQK8vT89Zj7/w2eOOW13Td9y//ySjPav8nb86XZ639vH2Ez7ks9bjPyCiekfA+31ts3381KQc49j3vkHwzWPdrxTY0hT2d7PbZqQ40d7/9T+7b3cPvUxV7ep69T3qT8M8pitD6f6N71vbc51u7780n6PjaWi34/1uR37VJtbcupUvHas3Ca/1mb6ej6/JVfe4sj0tmNMt2mKs50HAggggAACFwnkNYZpOnPxyH9R5zW3eYYs/5WYXxF87k4ObeE5ZRimB339h2tLP/wQL2/+n2do8wxhXht87l6i7/JwS7LPjIh/f2ifH2LJSy/yEov8d2Z+q1nGyH/Xpzk8fuQZ3D96+PavbJNjOnXromv6lsdKA5TXrObY05znGcH8EFeeqc5PxM9lM+33dJ+8fCHN2v97+IMk+5+Xf6SRP3f5SYuV9+FtsXIeT13S0do+tm0xTs1vGu685262yT8+jr8YIOM+tn97L7fXPppu80si8u4deb/b3Obvqed8/7FH68Op8eUZ2fygX2vzZyaB2mun9ps0O/v0ln7POfa5Ntfm1Ll4bYDJobVpr023t+RKnrnNa+Iz97MGZO3IPM5rfPOyB2d2p6Q9RwABBBBAYCACeeu4ZkCmX04xEAJDRQABBBBAAAEEENgrgTzj9S8nhnf6IcO9jtm4EEAAAQQQQAABBAYgkPdTzg+45WUg7ezu3xpg3IaIAAIIIIAAAgggMAiBZnLbNu9h3L5tbRAEhokAAggggAACCCCwZwL54b78YNt3RETe8D+/zc4DAQQQQAABBBBAAAEEEEAAAQQQQAABBBBAAAEEEEAAAQQQQAABBBBAAAEEEEAAAQQQQAABBBBAAAEEEEAAAQQQuCuB/MayT3r4drB/d/iWqv8cES+5aw/ud7B294LcfsyFw1765qgLu2/i7SmPU8/za3lfGRGfevh62HsPqvXp2m8zq+zvb3kIlt84mD8eCCCAAAIIILAxAp8wuWdrMxh7XdTb+HL7nyLixz8yVwzvs3v5Jq/8yt4PfYTXEm+1+erB8I6ghyXmUEwEEEAAAQS6IPCPJob3gyLi3SPix3bRs/pONAPVtn/zkUOMYHAah6883MIsb2M2/fkZEfG7IyLP+mfbNL0/5RFm1W+1vrx9deAr4o2ghyuw2AUBBBBAAIFtEPjyieHdRo+v72UzeNPtrz4TbgSD0zjkWB97/LqJRj75sYY7fm8EPex4+gwNAQQQQGBUAs3snNo2Ju29XOyfFxF5BvifHc70TS97+EER8asiIr/G9hsP7+c2f/8VEZHvHz+msV8rIvIayS+LiO9+uIb4mx+uGf3LEfEOh51eEBGfdrjO+Hse+pFfsJBfn/vUM3/tmN8QEfktZPn7f4yINzvu3MNX9F4yOLeO+cQhzx6z9bsZ018WEV96YJVj+ayHn3c5FfDCa8dxzzV/44nhzf8ItMd0/2p95DGm8dsx2zY1k5r7vIj41ohIXfzriPgTEfGjWqMT29eJiN8cEV8QEd9y2C+vX//sB23/4oPOp7u1PpzbTtt6jgACCCCAAAKdETi3gOfr7dHapNH6lIkBydeb4U0z+g+O3mv7te0XRkS2mz7aexn7T53ZP43Mz4yIr33k/bedBr3wfHrMD5/E/PQT+z1meCvGfOKQswxvXmLQxjHd5mUHT/1mtbZ/M9Kn+pSv/ZDJMf/JpNF0/2p95GGm8SeHjTc6fJNce/94m7r5edMdDs9/5OEPheP209//r4h4vcm+0/dOPZ809RQBBBBAAAEEeiPQro/M6zfbQt5ea31tr+dX1ebzPCv2iyLiPQ4f+HrtI7P7JQ+f6v/lEfFTD9v8vcVIU5zt26O9nteF5tm53xcRPy0ifsHhTG97//sfzsh9fUT8xoh4r4h4/6Ozr3+yBZyxbTHT4OUZ2i+a9O9nH+1/zvBWjPmcwTx3zNbvvGtCsvoDD2fPf/rB1E3/2PicozFc+rXFPdeftv8vmXD6jPbi5LUl9JGHOdW/PJP88sN7qY0/HRHvc9DGhx3+C5D7JaufNOlrntmdznd+9fKLD1rOM8X/fHK8/2myX8uJU3ny1D8wJmE9RQABBBBAAIF7EjhnsrIPzXDkNv91/LpHHUuj0NqkGZ6eGcumecuzfL21yfbt0V7L7Qe3Fw/bd5vsk+8fm9E01G3/f3i072O/tn2awXvniPjeQ6z8d3ieyWyPc1wqxtyO347VtueO2fqd2+M7JeRZy/yjId/Ly0ie8mhxz/XnzQ///s8zpq3tz50coL2W22p95GFa/Gn/3m/y+m+d9KU9zQ9cftuhzd9pL0ZEXqvd4uUfBmmcp4+8rOWbDm3SwKd2p49zczNt4zkCCCCAAAIIdErgsYW8GYTcpsk8fnzuxETk3R1OPd5z0uavTxq02HktbZ59mz7SWLf383reY3PyBpP380N3cx8t5tRA/cFJrD80CXSOS8WYp8efHPLiJQ15K7VjI5b7f9VkDNN4l543HnO3eR319DHdr1ofeZwWf8rrrxxeT3N/6trw3C/P+rZ92x1H/trktZ84HcTk+Qc8/AH0sYefN528nk/P6eGomV8RQAABBBBAoEcCjy3kzTTkGb78kNDx4z8cTESa0nOPNKv54aCMlZcmtEeL/RXthaPtY+9nzPb+1AwdhXiNX0/tk2d1/9UhXp7tbR/+OselYszn+nzumK3f51id2+81ABy90OJe2uaHCU/dzaLtt4Q+sqst/pRXfsCsvT5nmyY2H/lBx2yfH1K85nEt42uOZR8EEEAAAQQQKCbw2ELeDMW/OHPMvJ402+S3cT32yPezXd6BoT1a7KmZae/l9tb3p7Ha83Mx85KJ9t4XH84cnuOy5JjPHbP17Ryrc/u1cZ/btrin7sOb99vNu2TkB8TOPdr+S+gjj9niT8edGmqvz9n+2kPn27yd+6Ph3Bjb69cybvvbIoAAAggggMCKBB5byJuhmBqOaVeXPNt56diX3p/2sz1/bJ+8U0N7/7c98i/sJcecxrH1ofU5t+21c/Pw2BxO4xw/vxT3uP3x75f2v4VVHutU/LwNW76ed+5oHyh7bPvDDp3OSyByv+zTNY9rGV9zLPsggAACCCCAQDGBxxbyU4Zjevjp9ax554ZTj7yzQotz6hrecyau7XPt+6f68ljM/NBS/rs72+SHlpqxyt+nj1vG/F2H+P92GvDwPK9HbfcGPj7mY/3O3R+bwxOHevVLl+K+uuGZJ5f2v4VVHvJU/L97eD0vPzm+zrZ1860Od19ITbZrnvNDdS3e27WGR9u/d/gQY54NPr4387WMjw7hVwQQQAABBBBYg8BjC3kzCOdM56+ZmIi8G0MzF20c+fv0Lg3T60Avxb71/daH6fZSzOkn+Vvb3E4ft4w57wTR4rYPU7XY01t/HR+z7XNuHh6bwxb/1PZS3FP7TF+7tP8trPI4p+LnnRna639s2pnD8zecXJOd14y3W+Hl3S3afn/hxAch884geZuzbHPqzh/TbyQ8vlvJiW54CQEEEEAAAQR6IvCYWWoG4ZzRyrsr/OOJkcj77ua3gOVZ3dxO78Ob39DVzEeOTrav1QAABD9JREFU/1LsW98/xfhSzNwnvx2utWvbaaxbxvypk9j5BQ4//3D3i48+nN1thiuPO320fpybh8fmcBrn+PmluMftj3+/tP8trPJYp+Lnhwyn4/2zh/sR59ncvAd0fsCu7febJh3O/ab32s17+Sb/1Gqa4ekZ/VNfWjHV+e96uBdwGuTc1wMBBBBAAAEENkBgah6Ou9uMwzmjle3f4sj0tn2m2zQL2W76aO+fi33r+9NjteeXYma7t46I/Nay1ja3x49rx5yxp/e0nR7jzx8ZuekxW7tzrB6bw2mc4+eX4h63P/59zv7XsspjnYufHPPDZ+39U9tPPO7sYW6n10kf75d/cPz2E/vlS3/4zPHONPcyAggggAACCPRE4DGz1AzBOaPVxpFnbj/w4Wzl3zh8KCivgcx/J+c1nPlv7emZ3bbPpdi3vt+OM91eitnafsyRuWmvT7fXjDn3z3vA/rnDN4Ilp7xDQpqsvIb33Fxc6ve5/ab9PfX8UtxT+0xfm7v/tawei//6D3885NdD5yUz+YURyfJrIiL/cDh1T+DW7zzT+xEPX2aSX3ed++VdH3K/zzx8019rd7zN/f7o4Z7HuU9eQzy9zd5xe78jgAACCCCAAAIIIHCRQDO8T/lykYtBNUAAAQQQQAABBBBAoAcC+TXVzfDm9c4eCCCAAAIIIIAAAgjshkBekvCSieHNyw08EEAAAQQQQAABBBDYDYF2Zrdt32c3IzMQBBBAAAEEEEAAAQQOd8nID6Hltbu/DhEEEEAAAQQQQAABBBBAAAEEEEAAAQQQQAABBBBAAAEEEEAAAQQQQAABBBBAAAEEEEAAAQQQQAABBBBAAAEEEEAAAQQQQAABBBBAAAEEEEAAAQQQQAABBBBAAAEEEEAAAQQQQAABBBBAAAEEEEAAAQQQQAABBBBAAAEEEEAAAQQQQAABBBBAAAEEEEAAAQQQQAABBBBAAAEEEEAAAQQQQAABBBBAAAEEEEAAAQQQQAABBBBAAAEEEEAAAQQQQAABBBBAAAEEEEAAAQQQQAABBBBAAAEEEEAAAQQQQAABBBBAAAEEEEAAAQQQQAABBBBAAAEEEEAAAQQQQAABBBBAAAEEEEAAAQQQQAABBBBAAAEEEEAAAQQQQAABBBBAAAEEEEAAAQQQQAABBBBAAAEEEEAAAQQQQAABBBBAAAEEEEAAAQQQQAABBBBAAAEEEEAAAQQQQAABBBBAAAEEEEAAAQQQQAABBBBAAAEEEEAAAQQQQAABBBBAAAEEEEAAAQQQQAABBBBAAAEEEEAAAQQQQAABBBBAAAEEEEAAAQQQQAABBBBAAAEEEEAAAQQQQAABBBBAAAEEEEAAAQQQQAABBBBAAAEEEEAAAQQQQAABBBBAAAEEEEAAAQQQQAABBBBAAAEEEEAAAQQQQAABBBBAAAEEEEAAAQQQQAABBBBAAIFHCPz/nBj6+yS5orwAAAAASUVORK5CYII=;" parent="1" vertex="1">
          <mxGeometry x="335" y="10" width="70" height="70" as="geometry" />
        </mxCell>
        <mxCell id="FzhFjTnC4z_E8erlEicd-43" value="" style="shape=image;verticalLabelPosition=bottom;labelBackgroundColor=default;verticalAlign=top;aspect=fixed;imageAspect=0;image=data:image/png,iVBORw0KGgoAAAANSUhEUgAAArwAAAK8CAYAAAANumxDAAAAAXNSR0IArs4c6QAAIABJREFUeAHt3Qu0PF9a1vd3EBBEBhBhgjdQWYByUZBwUzOzjKgoUSKOsryLV0RkACGg4KCoaNRoxGhAYU2WAZV4C5BR8TYKghdAiIlEHBVQQFHuoNzNeYfe86t/T/fpOt1vde2q/em1zqo+3bve2vu7n/fdz6lTXR3hgQACCCCAAAIIIIAAAggggAACCCCAAAIIIIAAAggggAACCCCAAAIIIIAAAggggAACCCCAAAIIIIAAAggggAACCCCAAAIIIIAAAggggAACCCCAAAIIIIAAAggggAACCCCAAAIIIIAAAggggAACCCCAAAIIIIAAAggggAACCCCAAAIIIIAAAggggAACCCCAAAIIIIAAAggggAACCCCAAAIIIIAAAggggAACCCCAAAIIIIAAAggggAACCCCAAAIIIIAAAggggAACCCCAAAIIIIAAAggggAACCCCAAAIIIIAAAggggAACCCCAAAIIIIAAAggggAACCCCAAAIIIIAAAggggAACCCCAAAIIIIAAAggggAACCCCAAAIIIIAAAggggAACCCCAAAIIIIAAAggggAACCCCAAAIIIIAAAggggAACCCCAAAIIIIAAAggggAACCCCAAAIIIIAAAggggAACCCCAAAIIIIAAAggggAACCCCAAAIIIIAAAggggAACCCCAAAIIIIAAAggggAACCCCAAAIIIIAAAggggAACCCCAAAIIIIAAAggggAACCCCAAAIIIIAAAggggAACCCCAAAIIIIAAAggggAACCCCAAAIIIIAAAggggAACCCCAAAIIIIAAAggggAACCCCAAAIIIIAAAggggAACCCCAAAIlBF43It45It4/Ij4kIj46Il76EPnj/WBAAzRwpIGPi4iXRMQvjoh3iojXfnjfAwEEEEAAgS4JvGVEfFREfP6Dwf3OB4P7X/xgQAM0cIUGvjUi/mJEvF9E/KAuq51OIYAAAggMRyDP5P6liPi+KxY2ptgfBjRAA49p4JUR8UuGq6oGjAACCCDQDYEfGhGfzOg6g+cPHRq4gwZeHhEv6Kb66QgCCCCAwBAE3iEi8szLY2dmvIcPDdBApQa+JiLedYgKa5AIIIAAAqsTeM+I+CZml9mnARpYQQPfHhHvvXoV1AEEEEAAgV0TyDO7zK6zdpVn7cSip6dq4D9HxM/edaU1OAQQQACB1QjkNbsuY2BOnmpOtKeZJTTA9K62FDgwAgggsG8C+QG1JRYuMXGlARq4RgNM777XHKNDAAEE7k4gbz3mtmNMyTWmxD50s6QGmN67LwcOiAACCOyXQN5nd8lFS2x8aYAGrtUA07vftcfIEEAAgbsRyG9Qc3aXGbnWjNiPdu6hAab3bkuCAyGAAAL7JJBfF3yPBcsxcKYBGrhFA0zvPtcgo0IAAQTuQuDzGV6GnwZoYCMaYHrvsiw4CAIIILAvAq8bEd+5kYXuljND9nVmkQb2owGmd1/rkNEggAACixPIuzMwAhjQAA1sTQNM7+LLgwMggAAC+yHw/gwvw08DNLBRDTC9+1mLjAQBBBBYlMCHbHSh29rZKP11BpUGltEA07voEiE4AgggsA8CH83wOrtHAzSwcQ2k6f1Z+yjJRoEAAgggsASBl258oXPWbJmzZrjiujUNML1LrBBiIoAAAjsh8PEMr7N7NEADO9EA07uThckwEEAAgWoCDK8zeVs7k6e/NPuYBpje6lVCPAQQQGAHBBhe5uEx8+A9+tiiBpjeHSxOhoAAAghUEmB4GZotGhp9pttLGmB6K1cKsRBAAIGNE2B4GYdLxsH7NLJVDTC9G1+gdB8BBBCoIsDwMjNbNTP6TbtzNMD0Vq0W4iCAAAIbJsDwMg1zTIM2dLJlDTC9G16kdB0BBBCoIMDwMjJbNjL6Tr9zNcD0VqwYYiCAAAIbJcDwMgxzDYN2tLJ1DTC9G12odBsBBBC4lQDDy8Rs3cToPw0/RQNM762rhv0RQACBDRJgeJmFp5gFbellDxpgeje4WOkyAgggcAsBhpeB2YOBMQY6fqoGmN5bVg77IoAAAhsjwPAyCk81CtrTzF40kKb3vTdWs3UXAQQQQOAKAgwv87IX82IctHyNBpjeKxYOuyCAAAJbI8DwMgnXmAT70M2eNMD0bm3l0l8EEEDgiQQYXsZlT8bFWOj5Wg0wvU9cPDRHAAEEtkSA4WUQrjUI9qOdvWmA6d3S6qWvCCCAwBMIMLxMy95Mi/HQ9C0aYHqfsIBoigACCGyFQK+Gdyv89BMBBCJ+TkR8Z+zHaDO9VI0AAgjsjADDu7MJNRwEViLA9K4E3mERQAABBC4TYHgvM9ICAQTmEWB653HSCgEEEEDgzgQY3jsDdzgEdk6A6d35BBseAgggsEUCDO8WZ02fEeibANPb9/zoHQIIIDAcAYZ3uCk3YATuQoDpvQtmB0EAAQQQmEOA4Z1DSRsEELiGANN7DTX7IIAAAgiUE2B4y5EKiAACEwJ7M73/KSLeezI+TxFAAAEENkCA4d3AJOkiAhsnwPRufAJ1HwEEENg6AYZ36zOo/whsgwDTu4150ksEEEBglwQY3l1Oq0Eh0CUBprfLadEpBBBAYP8EGN79z7ERItATAaa3p9nQFwQQQGAQAgzvIBNtmAh0RIDp7WgydAUBBBAYgQDDO8IsGyMC/RFgevubEz1CAAEEdkuA4d3t1BoYAt0TYHq7nyIdRAABBPZBgOHdxzwaBQJbJcD0bnXm9BsBBBDYEAGGd0OTpasI7JQA07vTiTUsBBBAoBcCDG8vM6EfCIxNgOkde/6NHgEEEFiUAMO7KF7BryTwphHxjhHxHhHxwoh4kZ8hGPz+iPgvO/rJryH+lbS7mHZ/ekT85Ih48yvrjN0QQGAgAgzvQJPd8VDfLSJ+74MxeEVEfMuODM+ezJux7MuM720+vzEiXh4RH8IAd1zpdQ2BFQkwvCvCH/zQbxARHxoRr2Rwd3VWc29Gyni2Z/S/KyI+LSLecvAaa/gIIDAhwPBOYHh6NwK/NCK+htFldGmABhbUQF5S8pER8Vp3q2wOhAAC3RJgeLudml127PkR8ZkLLnDOxm3vbJw5M2dLa+BzI+JNdllRDQoBBGYTYHhno9LwRgIviIh/wuw6o0cDNLCCBr48In70jTXM7gggsGECDO+GJ29DXX/jiPinKyxyS585Et/ZSRrYjgb+dUS81Ybqpq4igEAhAYa3EKZQJwk8LyLyX4qMAQY0QANra+Armd6TddqLCOyeAMO7+ylefYAfzuwy+zRAAx1pgOldfVnQAQTuT4DhvT/zkY74FhHxbR0tdGufXXJ8ZzhpoA8NML0jrUTGisADAYaXDJYk8EnMrjN7NEADnWqA6V2y+ouNQGcEGN7OJmRH3ckPqn17pwuds2x9nGUzD+ZhbQ0wvTtadAwFgccIMLyP0fHeLQQ+kNl1Zo8GaGADGmB6b6n09kVgIwQY3o1M1Aa7+TkbWOjWPrvk+M5w0kAfGmB6N7jI6DICTyHA8D6FlrZzCeStyL6Z4XV2jwZoYEMaYHrnVnjtENggAYZ3g5O2gS6/3YYWOWfY+jjDZh7MQw8aYHo3sMDoIgLXEGB4r6Fmn0sE3pfhdWaPBmhgoxpgei9VeO8jsEECDO8GJ20DXf6gjS50PZxh0gdnOmlgfQ0wvRtYaHQRgacQYHifQkvbuQQ+iuF1do8GaGDjGmB651Z87RDYAAGGdwOTtMEu/s6NL3TOsK1/hs0cmIMeNMD0bnAB0mUEThFgeE9R8dqtBHrVVQ8LqD4wcjSwLQ0wvbeuCPZHoAMCvRqTDtDowg0EetUVo7Eto2G+zFcvGmB6b1gQ7IpADwR6NSY9sNGH6wn0qqteFk/9YORoYHsaYHqvXxPsicDqBHo1JquD0YGbCPSqKyZjeybDnJmznjTA9N60NNgZgfUI9GpM1iPiyBUEetVVTwunvjByNLBNDTC9FauEGAjcmUCvxuTOGByumECvumIwtmkwzJt5600DTG/xoiEcAksT6NWYLD1u8Zcl0Kuuels09YeRo4HtaoDpXXYdER2BUgK9GpPSQQp2dwK96oq52K65MHfmrkcNML13X14cEIHrCPRqTK4bjb16IdCrrnpcMPWJkaOBbWuA6e1l5dEPBB4h0KsxeaTL3toAgV51xVhs21iYP/PXqwaY3g0sTLo4NoFejcnYs7L90feqq14XS/1i5Ghg+xpgere/dhnBjgn0akx2jHyIofWqK6Zi+6bCHJrDnjXA9A6xxBnkFgn0aky2yFKfnxHoVVc9L5T6xsjRwD40wPQ+Wws8Q6AbAr0ak24A6chVBHrVFUOxD0NhHs1j7xpgeq9aOuyEwHIEejUmy41Y5HsQ6FVXvS+S+sfI0cB+NMD03mO1cQwEZhLo1ZjM7L5mnRLoVVfMxH7MhLk0l1vQANPb6SKlW+MR6NWYjDcT+xpxr7rawgKpj4wcDexLA0zvvtY3o9kogV6NyUZx6vaBQK+6YiT2ZSTMp/ncigaYXssjAisT6NWYrIzF4W8k0KuuXhQRfjCggadp4EuDsa4w1kzvjQuL3RG4hUCvxuSWMdl3fQJ0tf4c6AECVQRewfBGheHNGExvlSrFQeCJBBiTJwLTfBYBupqFSSMENkGA4a09w830bkL2Ork3AozJ3ma0j/HQVR/zoBcIVBBgeGsNrzO9FaoUA4EnEmBMnghM81kE6GoWJo0Q2AQBhrfe8DK9m5C+Tu6JAGOyp9nsZyx01c9c6AkCtxJgeJcxvEzvrcq0PwJPIMCYPAGWprMJ0NVsVBoi0D0Bhnc5w8v0di9/HdwLAcZkLzPZ1zjoqq/50BsEbiHQo+H9zp3dOcIH2W5RqH0RmEGAMZkBSZMnE6CrJyOzAwLdEujR8Gafeq0zedb2mh+mt9sU0LE9EOi1YOyB7chjoKuRZ9/Y90agV8ObnHutNdcYXpc37C1zjKcrAr0Wi64g6cyTCdDVk5HZAYFuCfRseBNar/WG6e1W0jo2IoFeC8WIc7GnMdPVnmbTWEYn0LvhzfnpteYwvaNnj/F3Q6DXItENIB25igBdXYXNTgh0SWALhjfB9Vp3mN4uZa1ToxHotUCMNg97Gy9d7W1GjWdkAlsxvDlHvdYepnfkDDL2Lgj0Why6gKMTVxOgq6vR2RGB7ghsyfAmvF7rD9PbnbR1aCQCvRaGkeZgj2Olqz3OqjGNSmBrhjfnqdcaxPSOmkXGvTqBXovC6mB04CYCdHUTPjsj0BWBLRreBNhrHWJ6u5K3zoxCoNeCMAr/vY6TrvY6s8Y1IoGtGt6cq15rEdM7YiYZ86oEei0Gq0Jx8JsJ0NXNCAVAoBsCWza8CbHXesT0diNxHRmBQK+FYAT2ex4jXe15do1tNAJbN7w5X73WJKZ3tGwy3tUI9FoEVgPiwCUE6KoEoyAIdEFgD4Y3QfZal5jeLmSuE3sn0GsB2Dv3vY+PrvY+w8Y3EoG9GN6cs15rE9M7UkYZ6yoEek3+VWA4aBkBuipDKRACqxPYk+FNmL3WJ6Z3danrwJ4J9Jr4e2Y+wtjoaoRZNsZRCOzN8Oa89VqjmN5Rsso4706g16S/OwgHLCVAV6U4BUNgVQJ7NLwJtNc6xfSuKncH3yuBXhN+r7xHGRddjTLTxjkCgb0a3py7XmsV0ztCZhnjXQn0mux3heBg5QToqhypgAisRmDPhjeh9lqvmN7VJO/AeyTQa6LvkfVIY6KrkWbbWPdOYO+GN+ev15rF9O49u4zvbgR6TfK7AXCgRQjQ1SJYBUVgFQIjGN4E22vdYnpXkb2D7o1Arwm+N86jjYeuRptx490zgVEMb85hr7WL6d1zhhnbXQj0mtx3GbyDLEaArhZDKzACdycwkuFNuL3WL6b37tJ3wD0R6DWx98R4xLHQ1Yizbsx7JTCa4c157LWGMb17zTLjWpxAr0m9+MAdYFECdLUoXsERuCuBEQ1vAu61jjG9d5W/g+2FQK8JvRe+o46DrkadeePeI4FRDW/OZa+1jOndY6YZ06IEek3mRQct+OIE6GpxxA6AwN0IjGx4E3Kv9YzpvVsKONAeCPSayHtgO/IY6Grk2Tf2vREY3fDmfPZa05jevWWb8SxGoNckXmzAAt+FAF3dBbODIHAXAgzvD2Duta4xvXdJAwfZOoFeE3jrXEfvP12NrgDj3xMBhvfZbPZa25jeZ3PkGQInCfSavCc768XNEKCrzUyVjiJwkQDD+1xEvdY3pve58+Q3BJ5DoNfEfU4n/bI5AnS1uSnTYQTOEmB4XxNNrzWO6X3NufIKAq8i0GvSmp5tE6Crbc+f3iMwJcDwTmk8e95rnWN6n82RZwi8mkCvCfvqDnqySQJ0tclp02kEThJgeE9iedWLvdY6pvf8nHlnUAK9Juug07GbYdPVbqbSQBAIhvdxEfRa75jex+fNu4MR6DVRB5uG3Q2XrnY3pQY0MAGG9/Lk91rzbjG9P+bysLVAYDsEek3S7RDU01ME6OoUFa8hsE0CDO+8eeu17l1rer8iIn74vKFrhUD/BHpN0P7J6eFjBOjqMTreQ2BbBBje+fPVa+271vR+XkS8zvzha4lAvwR6Tc5+ienZHAJ0NYeSNghsgwDD+7R56rX+XWt6P/Fpw9cagT4J9JqYfdLSq7kE6GouKe0Q6J8Aw/v0Oeq1Bl5jer83It756QjsgUBfBHpNyr4o6c1TCdDVU4lpj0C/BBje6+am1zp4jen9m9chsBcC/RDoNSH7IaQn1xCgq2uo2QeBPgkwvNfPS6+18BrT+1Oux2BPBNYn0Gsyrk9GD24hQFe30LMvAn0RYHhvm49e6+FTTe8fvw2DvRFYl0CvibguFUe/lQBd3UrQ/gj0Q4DhvX0ueq2JTzG9X307BhEQWI9Ar0m4HhFHriBAVxUUxUCgDwIMb8089FoXn2J6fRlFjRZEWYFArwm4AgqHLCRAV4UwhUJgZQIMb90E9Fob55re96lDIRIC9yXQa/Ldl4KjVROgq2qi4iGwHgGGt5Z9r/Vxjun9jbUoREPgfgR6Tbz7EXCkJQjQ1RJUxURgHQIMbz33XmvkJdP7MfUoRETgPgR6Tbr7jP78UZ4XEW8XEe8bER8UER8VEb/zoXny8nOZQY8LZBZyDwQQeDqBHvP5Kx+GsfVanGO4ZDB7e/+lT5ePPRDogwDD+2we3jgiPjAiPicivnmDhai3wthjf57NtmcIIDCXQI+Gt8f6MkKf0jN4ILBJAgxvxFtExCdFxLczuZs72/DUBWaTSarTCKxMgOHd3pnYp9bGue0Z3pWT0eGvJzCy4c3LFj48Ir6N0d290W3F/PpMsScC4xJgeBneVkMZ3nHrwOZHPqrhzcsXPpfRHcbotmK9+YQ1AARWIMDwMrythjK8KySgQ9YQGNHwviAi/imzO5zZzYLtgQACTyfA8DK8DO/T88YenREYzfA+PyL+CbM7pNlleDsrPrqzGQIML8PL8G4mXXX0HIHRDO9nMrvDml2G91wV8DoCjxNgeBlehvfxHPHuBgiMZHh/KbM7tNlleDdQkHSxSwIML8PL8HaZmjr1FAKjGN43iIivYXgZ3qckh7YIIPAqAgwvw8vwKgabJzCK4f1QZnd4s+sM7+bLlQGsRIDhZXgZ3pWSz2HrCIxieF/J8DK8dWkjEgJDEWB4GV6Gd6iU3+dgRzC878bsMrsHDewzi40KgWUJMLwML8O7bI6JfgcCIxje38vwMrwM7x2qiUPslQDDy/AyvHvN7oHGNYLhVawV61asB0ptQ0WgjIAaqoa2GpqewQOBTRIYwfB+izO8zvA6w7vJ+qTTfRBgeBlehrePXNSLGwjs3fC+KbPL7E40cEOq2BWBYQkwvAwvwzts+u9n4Hs3vO84MTstYW3HLd77yVwjQeB+BBjecWvm8Xrpkob75Z0jFRPYu+F9D4bXGd6JBorTRzgEhiDA8DK8zfgyvEOk/D4HuXfD+8KJ2WkJaztu8d5nFhsVAssS+NvqqBMHBw0wvMvmmugLEti74X2RQq1QTzSwYCoJjcBuCfzVSQ45YTDuCYOce4Z3t2m+/4ExvGMXr9EWr/1ntBEiUE/g0xleJw4OGmB46/NLxDsRYHgZ3pFM753SymEQ2BWB38/wMrwM765yesjBMLwML8M7ZOobNAKzCfwKhpfhZXhn54uGnRJgeBlehrfT5NQtBDoh8LYML8PL8HaSjbpxNQGGl+FleK9OHzsiMAyBr2Z6md4Htadn8EBgkwQYXoaX4d1k6uo0Ancl8EcYXob3QXEM713TzsEqCTC8DC/DW5lRYiGwTwK+tdJakWsFw7vP/B5iVAyvIsbwDpHqBonAzQRe7izv8Gd5Gd6b00iAtQgwvAwvw7tW9jkuAtsi8E4R8b1M79Cml+HdVs7q7YQAw8vwMryThPAUAQQeJfAHGF6G91GFeBOBTgkwvAwvw9tpcuoWAh0SeJ2I+PtM77Cm1xneDpNSl+YRYHgZXoZ3Xq5ohQACP0DgzSLiy5neIU0vw6sKbJYAw8vwMrybTV8dR2A1Ai+IiC9meoczvQzvainnwLcSYHgZXob31iyyPwJjEnj9iPgUpnco08vwjpnruxg1w8vwMry7SGWDQGA1Aj8zIr6M8R3C+DK8q6WZA99KgOFleBneW7PI/ggg8LyHSxz+u4jIe/V+D/O7W/PL8Mr1zRJgeBlehnez6avjCHRJ4E0i4sURkV9H/Dci4l9GxLdGxPcxwps3wgxvlymnU3MIMLzrGN4XzZmcDbfZu642PDW6jgACGyHQ48kIhncj4tHN1ySwd2OSxrLHosHwrjMvr5kBXkEAAQT6JNDj2sXw9qkVvZpBgOFdx3gxvOtwn5ESmiCAAAJdEGB4u5gGndgLAYZ3HePF8K7DfS95axwIILB/Agzv/ufYCO9IgOFdx3gxvOtwv2NqORQCCCBwEwGG9yZ8dkbguQQY3nWMF8O7Dvfnqt9vCCCAQL8EGN5+50bPNkiA4V3HeDG863DfYIrqMgIIDEqA4R104g17GQIM7zrGi+Fdh/syWSQqAgggUE+A4a1nKuLABBjedYwXw7sO94FT3dARQGBjBBjejU2Y7vZNgOFdx3gxvOtw7zsb9Q4BBBB4RoDhfcbCMwRuJsDwrmO8GN51uN+cMAIggAACdyLA8N4JtMOMQYDhXcd4MbzrcB8jq40SAQT2QIDh3cMsGkM3BBjedYwXw7sO924ST0cQQACBCwQY3guAvI3AUwgwvOsYL4Z3He5PyQ1tEUAAgTUJMLxr0nfs3RFgeNcxXgzvOtx3l8AGhAACuyXA8O52ag1sDQIM7zrGi+Fdh/saOeaYCCCAwDUEGN5rqNkHgTMEGN51jBfDuw73M2ngZQQQQKA7Agxvd1OiQ1smwPCuY7wY3nW4bzlX9R0BBMYiwPCONd9GuzABhncd4/WSiEjTu9efl8U6XC8tEAun0+zwbxIRbx8R7xURL9yxDvaqb+PaV+3KHMxczJx849lZvHzDS/VsjffTM3ggsEkCDG+fxmyNQjbCMddK0reNiI+KiL8aEV/f6R8DI8y/Map3czTw7yPi5RHxkRHxNmsVjU7rBMO7oiAc+jYCDK8FYM4CsJc2t2XL0/Z+rYj4gIj4B50uXHuZU+NQw5bWwBdExIsj4nlPKwE3t156XNfEZ3hvnlYB1iLA8Fosril6W93nXnn2nhHxpYxubFUn+q0untLAlzz8l+bd71VEOq0fDO8dBeBQtQQYXoX9VGHf62u12fOa0fIM0O+KiO/rdLHa67walzp2Lw1870N+f9ydzvbea0xPOQ7D+5p13ysbIcDwWiieUuy23nbJtHydiPhzjK6zujQwhAY+IyJee8mC0qmOGN6FJ1345QgwvAzv1k3sU/q/VCblmV1mVy49RYvabl8vn77wmd4eNcLwLrWKiLs4AYZ3+0W3x6LYa5+WSqi8jKHXMeuXuaGB5TTwsUsVlU5rCsO74IQLvSwBhne5QmiR6Y/tEtmUH1BzzW5/cy3/zMk9NJDX9L7bEoWF4V2IqrDDEmB4LQr3WBR6OUZ1ouetx9yNQQ71om/9WEeLX7TQpQ09zqczvNWriHh3I8DwrlMgeyxkI/SpOrHyPrsjcDNG80wDj2vgF1YXl05rC8O7wEQLeR8CDO/jRUyR3xef6qzypRL70od8N5/XauDzq4sLw7sAUSGHJsDwKvDXFvgt7leZ7Pl1wVtkoM/mjQaW0cBbVxaYTuuLM7zFkyzc/QgwvMsUPgtKn1wrM+ujOl2QaK9P7ZmX/c/LR1QWmE7rC8NbPMnC3Y8Aw7v/ImyhfTbHlZn1VztdkMz3s/nGAot7auCzKwtMp/WF4S2eZOHuR4DhtSDcc0FY+1iVmfX1nS5IazN2fDVlVA18XWWB6bS+MLzFkyzc/QgwvBankRanqsx6k04Xo5Hm0ljVrh418PyqItNpjWF4CydYqPsSYHgtGj0uGkv1qSq73r7TxWgpbuKqEzQwTwM/oarIdFpjGN7CCRbqvgQY3nlFTLHfB6eq7HqvThcjOt2HTs3jducxv3mx6tGjDhjeqtkV5+4EGN7tFtYei2HvfapKsBcyvG7JRgM0cEIDWRuqHj3WU4a3anbFuTsBhpfh7bGoLtWnqgR70YmFbqk+iytHaWA7GsjaUPXocd4Z3qrZFefuBBje7RTSHovf1vpUlWAMr7zZmvb19z6aZXirqqw4CBQTYHjvUwQtNn1wrkofhreP+ZRX5qE3DTC8VVVWHASKCTC8FozeFowl+1OVPgyvvFlSp2JvV18Mb1WVFQeBYgIM73YLq0Xx6XNXlT4M79PZ0ytmI2iA4a2qsuIgUEyA4bUIjbAItTFWpQ/DK2+apmxpYaoBhreqyoqDQDEBhlexnhbrvT+vSh+GV97sPVeM7zqNM7xVVVYcBIoJMLzXFTWLwTa5VaUPw7vN+Ze35m1pDTC8VVVWHASKCTC8FoClF4Ce4lelD8Mrb3rStb7oUyd/AAAgAElEQVT0o0eGt6rKioNAMQGGt59CadFafi6q0ofhXX6u5APGW9QAw1tVZcVBoJgAw2tR2eKicm2fq9KH4ZU312rQfvvWDsNbVWXFQaCYAMO77+JrcX3u/FalD8P7XK50hgcN/IAGGN6qKisOAsUEGF4L1UgLVVX6MLzyZqS8Mdb5emd4q6qsOAgUE2B45xcyRX/7rKrSh+HdvhbkszlcQgMMb1WVFQeBYgIMr6K/RNHvNWZV+jC88qZXjevXutpkeKuqrDgIFBNgeNctjhan+/KvSh+G977zJk/w3ooGGN6qKisOAsUEGF4LyVYWkop+VqUPwytvKvQoxv50xPBWVVlxECgmwPDur+BaRM/PaVX6MLznGdMfNiNrgOGtqrLiIFBMgOFdZ3F6SURkYdzrz8tiHa6XFtqq9OnV8Paoq+zTpXlZ432s5s8LVvNZMbxVVVYcBIoJMLzzC1nlolxZFIslURKOruiqCanXPw56zEGsmmoub0dgVbnmVMXK2u6BwCYJMCaMyRLCpSu6aroawZi0sd66xWo+wRFYVZnUyjgM73yNatkZAcaEMVlCknRFV01XIxiTNtZbt1jNJzgCq0qjWhWL4Z2vUS07I8CYMCZLSJKu6KrpagRj0sZ66xar+QRHYFVlUivjMLzzNaplZwQYE8ZkCUnSFV01XY1gTNpYb91iNZ/gCKwqjWpVLIZ3vka17IwAY8KYLCFJuqKrpqsRjEkb661brOYTHIFVlUmtjMPwzteolp0RYEwYkyUkSVd01XQ1gjFpY711i9V8giOwqjSqVbEY3vka1bIzAowJY7KEJOmKrpquRjAmbay3brGaT3AEVlUmtTIOwztfo1p2RoAxYUyWkCRd0VXT1QjGpI311i1W8wmOwKrSqFbFYnjna1TLzggwJozJEpKkK7pquhrBmLSx3rrFaj7BEVhVmdTKOAzvfI1q2RkBxoQxWUKSdEVXTVcjGJM21lu3WM0nOAKrSqNaFYvhna9RLTsjwJgwJktIkq7oqulqBGPSxnrrFqv5BEdgVWVSK+MwvPM1qmVnBBgTxmQJSdIVXTVdjWBM2lhv3WI1n+AIrCqNalUshne+RrXsjABjwpgsIUm6oqumqxGMSRvrrVus5hMcgVWVSa2Mw/DO16iWnRFgTBiTJSRJV3TVdDWCMWljvXWL1XyCI7CqNKpVsRje+RrVsjMCjAljsoQk6Yqumq5GMCZtrLdusZpPcARWVSa1Mg7DO1+jWnZGgDFhTJaQJF3RVdPVCMakjfXWLVbzCY7AqtKoVsVieOdrVMvOCDAmjMkSkqQrumq6GsGYtLHeusVqPsERWFWZ1Mo4DO98jWrZGQHGZB1jUlmAxJo/h1Xp1+tiSwvztYAVVktoIGtD1WOJ/t0ak+Gtml1x7k6A4VX0by2AW9q/KsEYXnmzJd3r6/30yvBWVVlxECgmwPDerxBadNZnXZU+DO/6cymfzEGPGmB4q6qsOAgUE2B4LRo9LhpL9akqfRheebOURsXdtrYY3qoqKw4CxQQY3m0XV4vj0+avKn0Y3qdxp1O8RtEAw1tVZcVBoJgAw2shGmUhynFWPRheeTNS3hjrfL0zvFVVVhwEigkwvPMLmaK/fVZV6cPwbl8L8tkcLqEBhreqyoqDQDEBhlfRX6Lo9xqzKn0YXnnTq8b1a11tMrxVVVYcBIoJMLzrFkeL0335V6UPw3vfeZMneG9FAwxvVZUVB4FiAgyvhWQrC0lFP6vSh+GVNxV6FGN/OmJ4q6qsOAgUE2B491dwLaLn57QqfRje84zpD5uRNcDwVlVZcRAoJsDwWpxGWpyq0ofhlTcj5Y2xztc7w1tVZcVBoJgAwzu/kCn622dVlT4M7/a1IJ/N4RIaYHirqqw4CBQTYHgV/SWKfq8xq9KH4ZU3vWpcv9bVJsNbVWXFQaCYAMO7bnG0ON2Xf1X6MLz3nTd5gvdWNMDwVlVZcRAoJsDwWki2spBU9LMqfRheeVOhRzH2pyOGt6rKioNAMQGGd38F1yJ6fk6r0ofhPc+Y/rAZWQMMb1WVFQeBYgIMr8VppMWpKn0YXnkzUt4Y63y9M7xVVVYcBIoJMLzzC5miv31WVenD8G5fC/LZHC6hAYa3qsqKg0AxAYZX0V+i6Pcasyp9GF5506vG9WtdbTK8VVVWHASKCTC86xZHi9N9+VelD8N733mTJ3hvRQMMb1WVFQeBYgIMr4VkKwtJRT+r0ofhlTcVehRjfzpieKuqrDgIFBNgePdXcC2i5+e0Kn0Y3vOM6Q+bkTXA8FZVWXEQKCbA8FqcRlqcqtKH4ZU3I+WNsc7XO8NbVWXFQaCYAMM7v5Ap+ttnVZU+DO/2tSCfzeESGmB4q6qsOAgUE2B4Ff0lin6vMavSh+GVN71qXL/W1SbDW1VlxUGgmADDu25xtDjdl39V+jC89503eYL3VjTA8FZVWXEQKCbA8FpItrKQVPSzKn0YXnlToUcx9qcjhreqyoqDQDEBhnd/Bdcien5Oq9KH4T3PmP6wGVkDDG9VlRUHgWICDK/FaaTFqSp9GF55M1LeGOt8vTO8VVVWHASKCTC88wuZor99VlXpw/BuXwvy2RwuoQGGt6rKioNAMQGGV9Ffouj3GrMqfRheedOrxvVrXW0yvFVVVhwEigkwvOsWR4vTfflXpQ/De995kyd4b0UDDG9VlRUHgWICDK+FZCsLSUU/q9KH4ZU3FXoUY386Ynirqqw4CBQTYHj3V3AtoufntCp9GN7zjOkPm5E1wPBWVVlxECgmwPBanEZanKrSh+GVNyPljbHO1zvDW1VlxUGgmADDO7+QKfrbZ1WVPgzv9rUgn83hEhpgeKuqrDgIFBNgeNcp+i97mMdkv9efV8Q6XC8tYFXp06vh7VFX2adL87LG+1jNnxes5rNieKuqrDgIFBNgeOcXsspFubIoFkuiJBxd0VUTUq9/HPSYg1g11VzejsCqcs2pipW13QOBTRJgTBiTJYRLV3TVdDWCMWljvXWL1XyCI7CqMqmVcRje+RrVsjMCjAljsoQk6Yqumq5GMCZtrLdusZpPcARWlUa1KhbDO1+jWnZGgDFhTJaQJF3RVdPVCMakjfXWLVbzCY7AqsqkVsZheOdrVMvOCDAmjMkSkqQrumq6GsGYtLHeusVqPsERWFUa1apYDO98jWrZGQHGhDFZQpJ0RVdNVyMYkzbWW7dYzSc4Aqsqk1oZh+Gdr1EtOyPAmDAmS0iSruiq6WoEY9LGeusWq/kER2BVaVSrYjG88zWqZWcEGBPGZAlJ0hVdNV2NYEzaWG/dYjWf4AisqkxqZRyGd75GteyMAGPCmCwhSbqiq6arEYxJG+utW6zmExyBVaVRrYrF8M7XqJadEWBMGJMlJElXdNV0NYIxaWO9dYvVfIIjsKoyqZVxGN75GtWyMwKMCWOyhCTpiq6arkYwJm2st26xmk9wBFaVRrUqFsM7X6NadkaAMWFMlpAkXdFV09UIxqSN9dYtVvMJjsCqyqRWxmF452tUy84IMCaMyRKSpCu6aroawZi0sd66xWo+wRFYVRrVqlgM73yNatkZAcaEMVlCknRFV01XIxiTNtZbt1jNJzgCqyqTWhmH4Z2vUS07I8CYMCZLSJKu6KrpagRj0sZ66xar+QRHYFVpVKtiMbzzNaplZwQYE8ZkCUnSFV01XY1gTNpYb91iNZ/gCKyqTGplHIZ3vka17IwAY8KYLCFJuqKrpqsRjEkb661brOYTHIFVpVGtisXwzteolp0RYEwYkyUkSVd01XQ1gjFpY711i9V8giOwqjKplXEY3vka1bIzAozJOsbkSyPiFTv++cpYh+ulwl6Vfr0utj3qKvt0aV7WeB+r+fOC1XxWWRuqHmvkxaVjMrxVsyvO3QkwvPML2aVC4P3+WVYlWK+Glwb716A52vccMbxVVVYcBIoJMLz7Lr4W1+fOb1X6MLzP5UpneNDAD2iA4a2qsuIgUEyA4bVQjbRQVaUPwytvRsobY52vd4a3qsqKg0AxAYZ3fiFT9LfPqip9GN7ta0E+m8MlNMDwVlVZcRAoJsDwKvpLFP1eY1alD8Mrb3rVuH6tq02Gt6rKioNAMQGGd93iaHG6L/+q9GF47ztv8gTvrWiA4a2qsuIgUEyA4bWQbGUhqehnVfowvPKmQo9i7E9HDG9VlRUHgWICDO/+Cq5F9PycVqUPw3ueMf1hM7IGGN6qKisOAsUEGF6L00iLU1X6MLzyZqS8Mdb5emd4q6qsOAgUE2B45xcyRX/7rKrSh+HdvhbkszlcQgMMb1WVFQeBYgIMr6K/RNHvNWZV+jC88qZXjevXutpkeKuqrDgIFBNgeNctjhan+/KvSh+G977zJk/w3ooGGN6qKisOAsUEGF4LyVYWkop+VqUPwytvKvQoxv50xPBWVVlxECgmwPDur+BaRM/PaVX6MLznGdMfNiNrgOGtqrLiIFBMgOG1OI20OFWlD8Mrb0bKG2Odr3eGt6rKioNAMQGGd34hU/S3z6oqfRje7WtBPpvDJTTA8FZVWXEQKCbA8Cr6SxT9XmNWpQ/DK2961bh+ratNhreqyoqDQDEBhnfd4mhxui//qvRheO87b/IE761ogOGtqrLiIFBMgOG1kGxlIanoZ1X6MLzypkKPYuxPRwxvVZUVB4FiAgzv/gquRfT8nFalD8N7njH9YTOyBhjeqiorDgLFBBhei9NIi1NV+jC88makvDHW+XpneKuqrDgIFBNgeOcXMkV/+6yq0ofh3b4W5LM5XEIDDG9VlRUHgWICDK+iv0TR7zVmVfowvPKmV43r17raZHirqqw4CBQTYHjXLY4Wp/vyr0ofhve+8yZP8N6KBhjeqiorDgLFBBheC8lWFpKKflalD8Mrbyr0KMb+dMTwVlVZcRAoJsDw7q/gWkTPz2lV+jC85xnTHzYja4Dhraqy4iBQTIDhtTiNtDhVpQ/DK29Gyhtjna93hreqyoqDQDEBhnd+IVP0t8+qKn0Y3u1rQT6bwyU0wPBWVVlxECgmwPAq+ksU/V5jVqUPwytvetW4fq2rTYa3qsqKg0AxAYZ33eJocbov/6r0YXjvO2/yBO+taIDhraqy4iBQTIDhtZBsZSGp6GdV+jC88qZCj2LsT0cMb1WVFQeBYgIM7/4KrkX0/JxWpQ/De54x/WEzsgYY3qoqKw4CxQQYXovTSItTVfowvPJmpLwx1vl6Z3irqqw4CBQTYHjnFzJFf/usqtKH4d2+FuSzOVxCAwxvVZUVB4FiAgyvor9E0e81ZlX6MLzypleN69e62mR4q6qsOAgUE2B41y2OFqf78q9KH4b3vvMmT/DeigYY3qoqKw4CxQQY3nUWki+NiFfs+OcrYx2ulxbFqvTp1fD2qKvs06V5WeN9rObPC1bzWTG8VVVWHASKCTC88wtZ5aJcWRSLJVESjq7oqgmp1z8OesxBrJpqLm9HYFW55lTFytrugcAmCTAmjMkSwqUrumq6GsGYtLHeusVqPsERWFWZ1Mo4DO98jWrZGQHGhDFZQpJ0RVdNVyMYkzbWW7dYzSc4AqtKo1oVi+Gdr1EtOyPAmDAmS0iSruiq6WoEY9LGeusWq/kER2BVZVIr4zC88zWqZWcEGBPGZAlJ0hVdNV2NYEzaWG/dYjWf4AisKo1qVSyGd75GteyMAGPCmCwhSbqiq6arEYxJG+utW6zmExyBVZVJrYzD8M7XqJadEWBMGJMlJElXdNV0NYIxaWO9dYvVfIIjsKo0qlWxGN75GtWyMwKMCWOyhCTpiq6arkYwJm2st26xmk9wBFZVJrUyDsM7X6NadkaAMWFMlpAkXdFV09UIxqSN9dYtVvMJjsCq0qhWxWJ452tUy84IMCaMyRKSpCu6aroawZi0sd66xWo+wRFYVZnUyjgM73yNatkZAcaEMVlCknRFV01XIxiTNtZbt1jNJzgCq0qjWhWL4Z2vUS07I8CYMCZLSJKu6KrpagRj0sZ66xar+QRHYFVlUivjMLzzNaplZwQYE8ZkCUnSFV01XY1gTNpYb91iNZ/gCKwqjWpVLIZ3vka17IwAY8KYLCFJuqKrpqsRjEkb661brOYTHIFVlUmtjMPwzteolp0RYEwYkyUkSVd01XQ1gjFpY711i9V8giOwqjSqVbEY3vka1bIzAowJY7KEJOmKrpquRjAmbay3brGaT3AEVlUmtTIOwztfo1p2RoAxYUyWkCRd0VXT1QjGpI311i1W8wmOwKrSqFbFYnjna1TLzggwJozJEpKkK7pquhrBmLSx3rrFaj7BEVhVmdTKOAzvfI1q2RkBxmQdY/KyBx0k+73+vCLW4XqpsFelX6+LbY+6yj5dmpc13sdq/rxgNZ9V1oaqxxp5cemYDG/V7IpzdwIM7/xCdqkQeL9/llUJ1qvhpcH+NWiO9j1HDG9VlRUHgWICDO++i6/F9bnzW5U+DO9zudIZHjTwAxpgeKuqrDgIFBNgeC1UIy1UVenD8MqbkfLGWOfrneGtqrLiIFBMgOGdX8gU/e2zqkofhnf7WpDP5nAJDTC8VVVWHASKCTC8iv4SRb/XmFXpw/DKm141rl/rapPhraqy4iBQTIDhXbc4Wpzuy78qfRje+86bPMF7KxpgeKuqrDgIFBNgeC0kW1lIKvpZlT4Mr7yp0KMY+9MRw1tVZcVBoJgAw7u/gmsRPT+nVenD8J5nTH/YjKwBhreqyoqDQDEBhtfiNNLiVJU+DK+8GSlvjHW+3hneqiorDgLFBBje+YVM0d8+q6r0YXi3rwX5bA6X0ADDW1VlxUGgmADDq+gvUfR7jVmVPgyvvOlV4/q1rjYZ3qoqKw4CxQQY3nWLo8Xpvvyr0ofhve+8yRO8t6IBhreqyoqDQDEBhtdCspWFpKKfVenD8MqbCj2KsT8dMbxVVVYcBIoJMLz7K7gW0fNzWpU+DO95xvSHzcgaYHirqqw4CBQTYHgtTiMtTlXpw/DKm5Hyxljn653hraqy4iBQTIDhnV/IFP3ts6pKH4Z3+1qQz+ZwCQ0wvFVVVhwEigkwvIr+EkW/15hV6cPwypteNa5f62qT4a2qsuIgUEyA4V23OFqc7su/Kn0Y3vvOmzzBeysaYHirqqw4CBQT2Lvh/W/CQrGVheIe/axKH4ZXXt1Dr46xPZ0xvFVVVhwEigns3fC+O8MbFs1ni2ZV+jC8z5jSFxY08EwDDG9VlRUHgWICeze8b83wMrwTDVSlD8P7bIFndrCggWcaYHirqqw4CBQT2Lvhfb2I+P6J4VGYnxXmEVlUpQ/DO7aORswdY56neYa3qsqKg0Axgb0b3sT1SobXWd6DBqrSh+Gdt/gzSTiNpgGGt6rKioNAMYERDO9nMLwML8NLA+oADdxBAwxvsUkRDoEqAiMY3g+8Q5Eb7SzGVsdblTfO8DpzudUc0O9ltcvwVlVZcRAoJjCC4X3TiPhuptfZncLcYXiXNQ1MGb5b1QDDW1hohUKgksAIhjd5fSbDy/AWJg7Dy5Bt1ZDp97LaZXgLC61QCFQSGMXwvivDy/AWJg7Du6xpYMrw3aoGGN7CQisUApUERjG8yezPM73Dm96q3GF4GbKtGjL9Xla7DG9VlRUHgWICIxnet4iIb2B6hza9VenD8C5rGpgyfLeqAYa3qsqKg0AxgZEMb6L7eRHxfUzvsKa3Kn0YXoZsq4ZMv5fVLsNbVWXFQaCYwGiGN/F9MMPL8N6YRwzvsqaBKcN3qxpgeG8srnZHYCkCIxreZPkbIuJ7GN/hjG9VHjG8DNlWDZl+L6tdhreqyoqDQDGBUQ1vYnxhRPwbpnco01uVPgzvsqaBKcN3qxpgeKuqrDgIFBMY2fAmyudHxB+KiO9kfIcwvlXpw/AyZFs1ZPq9rHYZ3qoqKw4CxQRGN7wNZ97B4RMi4qsY310b3zbft24Z3mVNA1OG71Y1wPDeWl3tj8BCBBje54J9XkS8S0R8RET82Yj44oj4dxHxXYzwLozwc2f7+t8YXoZsq4ZMv5fVLsN7fV21JwKLEmB4F8U7bPC966pXw1u52FaJF6v5JLHCakqgxz9OsrZ7ILBJAns3JpuclB10eu+6YkzmixQrrOYTmN9yBF0xvPP1oCUCFwns3ZhcBKDBIgT2rqsRFtsqYWA1nyRWWE0JMLxTGp4jcCOBvRuTG/HY/UoCe9cVYzJfGFhhNZ/A/JYj6Irhna8HLRG4SGDvxuQiAA0WIbB3XY2w2FYJA6v5JLHCakqA4Z3S8ByBGwns3ZjciMfuVxLYu64Yk/nCwAqr+QTmtxxBVwzvfD1oicBFAns3JhcBaLAIgb3raoTFtkoYWM0niRVWUwIM75SG5wjcSGDvxuRGPHa/ksDedcWYzBcGVljNJzC/5Qi6Ynjn60FLBC4S2LsxuQhAg0UI7F1XIyy2VcLAaj5JrLCaEmB4pzQ8R+BGAns3JjfisfuVBPauK8ZkvjCwwmo+gfktR9AVwztfD1oicJHA3o3JRQAaLEJg77oaYbGtEgZW80lihdWUAMM7peE5AjcS2LsxuRGP3a8ksHddMSbzhYEVVvMJzG85gq4Y3vl60BKBiwT2bkwuAtBgEQJ719UIi22VMLCaTxIrrKYEGN4pDc8RuJHA3o3JjXjsfiWBveuKMZkvDKywmk9gfssRdMXwzteDlghcJLB3Y3IRgAaLENi7rkZYbKuEgdV8klhhNSXA8E5peI7AjQT2bkxuxGP3KwnsXVeMyXxhYIXVfALzW46gK4Z3vh60ROAigb0bk4sANFiEwN51NcJiWyUMrOaTxAqrKQGGd0rDcwRuJLB3Y3IjHrtfSWDvumJM5gsDK6zmE5jfcgRdMbzz9aAlAhcJ9GpMspj52S6Dl0VEj8X6YkLMbNDrYvuSDvMm+9SjFrCaPy9YzWeVtaHq0WPepGfwQGCTBHo1vD0muj7NL/q9sqpK0l4Nb6/c9Wv7uWMO580hw1tVZcVBoJgAwzuviCn2++BUlT4M7z70IK/NY7UGGN6qKisOAsUEGF4Fv7rg9xyvKn0YXnnTs871bT19MrxVVVYcBIoJMLzrFUaL0v3ZV6UPw3v/uZMvmG9BAwxvVZUVB4FiAgyvRWQLi0hVH6vSh+GVN1WaFGdfWmJ4q6qsOAgUE2B491VsLZ6Pz2dV+jC8j3OmQ3xG1QDDW1VlxUGgmADDa2EaaWGqSh+GV96MlDfGOl/vDG9VlRUHgWICDO/8Qqbob59VVfowvNvXgnw2h0togOGtqrLiIFBMgOFV9Jco+r3GrEofhlfe9Kpx/VpXmwxvVZUVB4FiAgzvusXR4nRf/lXpw/Ded97kCd5b0QDDW1VlxUGgmADDayHZykJS0c+q9GF45U2FHsXYn44Y3qoqKw4CxQQY3v0VXIvo+TmtSh+G9zxj+sNmZA0wvFVVVhwEigkwvBankRanqvRheOXNSHljrPP1zvBWVVlxECgmwPDOL2SK/vZZVaUPw7t9Lchnc7iEBhjeqiorDgLFBBheRX+Jot9rzKr0YXjlTa8a1691tcnwVlVZcRAoJsDwrlscLU735V+VPgzvfedNnuC9FQ0wvFVVVhwEigkwvBaSrSwkFf2sSh+GV95U6FGM/emI4a2qsuIgUEyA4d1fwbWInp/TqvRheM8zpj9sRtYAw1tVZcVBoJjAS0NxHrk4jzb2qvR5obyJ0bRjvNaKORrI2lD1mHO8e7fJk2QeCGySwG+3cFu4B9JAVZK+10DM7r2gOh5juWUNvEdVkem0xjC8hRMs1H0J/OZOk2rLBU/f+12wq7Lr7eWNPxRpgAZOaODtqorMidg9rC0Mb+EEC3VfAr+g06TqIbH1oV/jeu3cVGXXG8sbZocGaOCEBt6wqsiciH1t3avcj+EtnGCh7ksg/xqtTAax8OxZA5XZ9e/ljtpBAzQw0cDXVhaYSdyeairDWzzJwt2PwGtFxLd2mlg9Jbm+7MPIV2bWy+UNs0MDNDDRwGdVFphJ3J7WH4a3eJKFuy+Bz+k0sXpKcn1heI+z8iPlDbNDAzQw0cCHHReJG3/vcd1heG+cVLuvS+DXTxK2xwTTp32YzR7msTLT3kbeMDs0QAMTDfy4ygIzidtD7Wx9YHiLJ1m4+xJ4o4j4jk6TqyWZLdNboYHqzPpCecPw0AANRMTnVReXTnXF8C4w0ULel8AndZpcFSZHDGa5aaA6q14sb5gdGqCBiHi/6uLSqa4Y3gUmWsj7EvgREfHtnSZYMyu2jOutGqjOqudFxJfIG4aHBobWwD+KiKwF1Y9b690S+zO81bMs3ioEPlzRHrpoL1Ece4u5RGK9e0R8r9yROzQwpAa+JyLedYnC0qmeGN6FJlvY+xLIW5T99U6TrDfjpD/bPNu8VEZ9nLwZ0uyoA9usA5Xz9jFLFZVOawrDu+CEC31fAm8SEf9Pp4lWWaTEGnOhWiqb8t+ZnyFvmF4aGEoDf2apgnKI2+M6xfAuPOnC35fACyLiyxTuoQp3j4V1iT4tmUmvHRGfLm/kDQ0MoYE0u5nzSz6WqIG3xmR4l5xxsVchkN8H/pkK9xCF+9YCuKX9l06mPNP7sa7plTdq5241kNfsLnkZw7RG9VhbGd7pDHm+KwK/NCLy+8F7TDx9Mi9P1cC9kvPdIuKL5I26QQO70kDejWGpD6idqk1PrW/3aM/wnpopr+2GwA+JiA+NiFcq3rsq3vcojr0d455JmWd7f2FEfL68kTc0sGkN5JdK5H12l7j12GM1qbf6mf1heB+bMe/tisB7PFy39Hsi4u9GxLco4psu4j0W06X7tFYyvnVEfEREfHZEfJ28kTc00LUG8r+an/Wwxn1YRPz4tYpGpxpheFcUhEOvS+DNIuIdI+KnRsQLI+JFfjCIiJd1WqzXzZZnR39+RPyEh9sAvqe8kS9q5uoayLUrT+a8XUTk51d6eSx9AuCa+AxvL+rQDwQQ6IJAFsVriunS+3QBRycQQACBGdVIel8AACAASURBVASWrofXxGd4Z0ycJgggMA4BhnecuTZSBBBYhsA1hnTpfRjeZeZaVAQQ2CgBhnejE6fbCCDQDYGlzes18RnebuShIwgg0AMBhreHWdAHBBDYMoFrDOnS+zC8W1aUviOAQDkBhrccqYAIIDAYgaXN6zXxGd7BRGi4CCDwOAGG93E+3kUAAQQuEbjGkC69D8N7ada8jwACQxFgeIeaboNFAIEFCCxtXq+Jz/AuMNFCIoDAdgkwvNudOz1HAIE+CFxjSJfeh+HtQxt6gQACnRBgeDuZCN1AAIHNEljavF4Tn+HdrJx0HAEEliDA8C5BVUwEEBiJwDWGdOl9GN6RFGisCCBwkQDDexGRBggggMCjBJY2r9fEZ3gfnTJvIoDAaAQY3tFm3HgRQKCawDWGdOl9GN7qWRYPAQQ2TYDh3fT06TwCCHRAYGnzek18hrcDYegCAgj0Q4Dh7Wcu9AQBBLZJ4BpDuvQ+DO82taTXCCCwEAGGdyGwwiKAwDAEljav18RneIeRn4EigMAcAgzvHEraIIAAAucJXGNIl96H4T0/X95BAIEBCTC8A066ISOAQCmBpc3rNfEZ3tIpFgwBBLZOgOHd+gzqPwIIrE3gGkO69D4M79qqcHwEEOiKQK+Gd+nFQPwIDDCggf1qgOHtaqnVGQQQWJsAw7vfBY+ZMbc0MK4GGN61V1fHRwCBrggwvOMuiMyQuaeB/WqA4e1qqdUZBBBYmwDDu98Fj5kxtzQwrgYY3rVXV8dHAIGuCDC84y6IzJC5p4H9aoDh7Wqp1RkEEFibAMO73wWPmTG3NDCuBhjetVdXx0cAga4IMLzjLojMkLmngf1qgOHtaqnVGQQQWJsAw7vfBY+ZMbc0MK4GGN61V1fHRwCBrggwvOMuiMyQuaeB/WqA4e1qqdUZBBBYmwDDu98Fj5kxtzQwrgYY3rVXV8dHAIGuCDC84y6IzJC5p4H9aoDh7Wqp1RkEEFibAMO73wWPmTG3NDCuBhjetVdXx0cAga4IMLzjLojMkLmngf1qgOHtaqnVGQQQWJsAw7vfBY+ZMbc0MK4GGN61V1fHRwCBrggwvOMuiMyQuaeB/WqA4e1qqdUZBBBYmwDDu98Fj5kxtzQwrgYY3rVXV8dHAIGuCDC84y6IzJC5p4H9aoDh7Wqp1RkEEFibAMO73wWPmTG3NDCuBhjetVdXx0cAga4IvDTGXRCYAXNPAzSwVw1kbfdAAAEEEDgQ+FiGN/a64BkXM0cD42rgd1jlEEAAAQSeEfhQhpfhpQEaoIHdaeBDnpV5zxBAAAEEPsBCt7uFzlm9cc/qmXtz3zTwYssbAggggMAzAu/K8DK8NEADNLA7DbzzszLvGQIIIIDA60fE91jsdrfYtbM8ts740cB4GviuiPjBljcEEEAAgecS+EKGl+GlARqggd1o4POeW+L9hgACCCCQBPLTvM4CYUADNEAD+9DA/2BpQwABBBB4TQI/NiK+n+ll+mmABmhg8xr4voh4y9cs815BAAEEEEgCn2Oh2/xC5+zcPs7OmUfzeIsG/pIlDQEEEEDgPIG8W4OzvBbaWxZa+9IPDayrgazhP/l8mfcOAggggEAS+FRneZ3lpQEaoIHNauCTLWUIIIAAApcJvFFE/CuL3WYXO2fX1j27hj/+a2rgX0TEG14u81oggAACCCSBd4qIb2V6mV4aoAEa2IwGviUi3sEShgACCCDwNAI/LSKygK55tsKx8acBGqCByxrIWv1eTyvxWiOAAAIINAJ5pvdfMr1MPw3QAA10q4G8jMGZ3bZq2SKAAAJXEnh+RPwpd2/odrFz9uvy2S+MMNqjBvJuDPkBNdfsXrm42Q0BBBA4ReBdHm5181ciIm9ovsfFw5jMKw3QwBY0kDU477Pr1mOnViqvIYAAAkUE3ioiPiYiPj8ivpv5Zf5pgAZoYHENfFdEfF5E5NcF+wa1osVMGAQQQGAugR8cEXnm98UR8SER8TseFr6XPuz88X4woAEaoIGrNJA1NGtp1tSsre8cEVlrPRBAAAEEEEAAAQQQQAABBBBAAAEEEEAAAQQQQAABBBBAAAEEEEAAAQQQQAABBBBAAAEEEEAAAQQQQAABBBBAAAEEEEAAAQQQQAABBBBAAAEEEEAAAQQQQAABBBBAAAEEEEAAAQQQQAABBBBAAAEEEEAAAQQQQAABBBBAAAEEEEAAAQQQQAABBBBAAAEEEEAAAQQQQAABBBBAAAEEEEAAAQQQQAABBBBAAAEEEEAAAQQQQAABBBBAAAEEEEAAAQQQQAABBBBAAAEEEEAAAQQQQAABBBBAAAEEEEAAAQQQQAABBBBAAAEEEEAAAQQQQAABBBBAAAEEEEAAAQQQQAABBBBAAAEEEEAAAQQQQAABBBBAAAEEEEAAAQQQQAABBBBAAAEEEEAAAQQQQAABBBBAAAEEEEAAAQQQQAABBBBAAAEEEEAAAQQQQAABBBBAAAEEEEAAAQQQQAABBBBAAAEEEEAAAQQQQAABBBBAAAEEEEAAAQQQQAABBBBAAAEEEEAAAQQQQAABBBBAAAEEEEAAAQQQQAABBBBAAAEEEEAAAQQQQAABBBBAAAEEEEAAAQQQQAABBBBAAAEEEEAAAQQQQAABBBBAAAEEEEAAAQQQQAABBBBAAAEEEEAAAQQQQAABBBBAAAEEEEAAAQQQQAABBBBAAAEEEEAAAQQQQAABBBBAAAEEEEAAAQQQQAABBBBAAAEEEEAAAQQQQAABBBBAAAEEEEAAAQQQQAABBBBAAAEEEEAAAQQQQAABBBBAAAEEEEAAAQQQQAABBBBAAAEEEEAAAQQQQAABBBBAAAEEEEAAAQQQQAABBBBAAAEEEEAAAQQQQAABBBBAAAEEEEAAAQQQQAABBBBAAAEEEEAAAQQQQAABBBBAAAEEEEAAAQQQQAABBBBAAAEEEEAAAQQQQAABBBBAAAEEEEAAAQQQQAABBBAYlsBbRsQnRMQ/iohvjojvjYhvjIh/GBH/Y0T8xA2S+S0Pff74w88a3f8vEZE//98TDn7NPk8I/+SmrT9t+3tnRnjZYextv6cwmHmIVzU71u33HfSbOk49/5gLwa7t37X7te7c2u8W59z21v6di7vU61vr71IcxEUAAQQQWIjAD4qI3x0R331kUNoC1LZpJP6XiHjdhfqxRNg0Wa3/S8S/FLMd+ylm75p9LvXjlvdbf9r2ax6MZGrmsccPjYhvn7DPfZ/C4LHY7b25uk1d/65H+tzG9dT+XbtfVb8bh3Pba/t3Lt7Sr2+tv0vzEB8BBBBAoJDAa0XEX5gYk699OLP7sRHxMyPiPSLi/SPif4uINLttQXr5g0HO/bbwYHhvn6U279Ptz7sQ9tdM9NL2e6qhfOwQx7r9jxHxeyLi50TEux+2eSb6Gyb9+D/O6Pba/r1rROTP2z/W0aP3Kvt9FPo1fr12XK8R6E4vbK2/d8LiMAgggAACFQReOjEEfzMi3vhM0J91dAb4N5xp19vLDO/tM9KMyPSPnr90IezfO+hquk+l4Z3q9vMj4oef6c+bRcTfn2j8d55o18ZX2b8Th3nVS5X9PneM9vo9x9WOect2a/29Zaz2RQABBBC4I4EfHRHfeTAD/zYi3vDCsf/gxDh88aTtdKF6XkR8UET8s8NZ4bx+tj3y7NaviojPi4hvjYjvefj9X0fEn4iIH9Uandi+bUT8zxHxpYf98trib4qIL4yIj4mI55/Yp/Xp3PZ4l2v79mMj4n+NiK86jOc/RMRfjoj3PBygHf8pZmq6T/brN0ZE8s5/zedlAnlt6odExOtMBpF/qPznw/wknxdM3ps+/SOTOfx10zceed76888j4pWH/bMvb35mnx8fEd9/aPc5k+M9hcGZ0K96earbf/egjTd5rPHh/WyX40hGP+KofRvfqf6lQW7v59jzutv2aK+f2q+1mW4r+z099rmcm7aZ9iOf35JTbby/7JCTqYU8k/5ZDz/vcnygye+35EpeBpK1428dPleQf0jl5wvy91/xyOUqk8N7igACCCAwKoG8rrEtih88A0Ka0rzcIX8+etK+xciF8FMmMfP1ZnjfKCL+9tF7bb/cpgE+9W/yXOS+65H9ct9/dcIwT2Ofej7pflzbtxdFxLec6VsuyL9+8l4zCdPjnnve+vsVB/Pcfj/e/uOIeNNJkM+YHC8N8fEjjVH+YZNx/tOZPxSO98nf23FzDDnv7fffdqrx4YNirc0vmLR/CoMzoV/18lS3L3ms4eS9bNf69HGT1/Npe/24f/nHVHvvy59olI8O8apfK/vd+pV9Ppdz0zbT/tyaU3nMvOa/xZ9u8w+KvMzj+HFLruQfb//gzPHasfOP33N/5B33xe8IIIAAAoMRmC4i/9UNY2+LznccFqUviIhfdLgGOM/2pdHK636zXZ75+9MPd354n4h4rwfD+GER0c6+5dnmnzTpR56FyrPAuV+etcwPzOV+eW3xB0TEF00WwbwjwPTRrq/8ykmb9tp0Qb62bz8sIvK60Tb2XHB/yWFMv/Lh2ud/Onkv2xybqWlfj5+3mG37Nw7XUievvJRkOqa/Ntn5vSfHzP4cP3765P00x3MfrR85hjQVeUYvX0sTePzIM9J5tjvfbx9um+5/3P6a36e6/ZEzA2S71o/U5/TRXp/OUZr59vr/feZsdnt/ut807vHzyn63Y5/LuTx2azPt3y051eJlnmZe/oGHM6ypqfxDdTq2PKs/fdySK699FPtLHv7L8Msj4qcetvl761f2Idt7IIAAAggg8BwCeeuxXCy+/jmvPv2XtuDkNi9XOL6Lw/tNFqXfeiJ8/qvz2w5t/s7k/TTDLfYnTl5vT9N8tffTlJx65GLf2px6/9q+5VnCFjfPXB8vtHmXgqnpnZqOU/2Yvtbi5vazT3zQKi8l+DeT4+fZs3yk2fzqyevJdfr445P38sNdcx+tP20Mf3ESJ43H9JEfdmzt80Nk+Wi/t/0PL1+9abrNy0ee8mh/oOTlMNPHcf+mZ4Pzj6o0bKcex/udajN9rbLf7di5PZVzedzWZsr9lpxq8XL7odOBRUT+QdGu185LDaaPW3Ilz0a34+YfKq83DRwRPzgi8vXWJtt7IIAAAggg8BwCbYHKaxNvebTFJrfHBijj/pXDgpQL4bnbWeVZ3xanGbW8NvOtDz9pII8feaa37TNd1Kft8vXWZvp6e35t3/LexC3uu7VgR9s8y93anOvf0S6v+rXtk9t3ONXgcKa3tUsj2x5539n2+m9vLx64tzPpeSeOc/Mw2eXVT1u8NoY0y+21T3t1qx948r8f3ssz+W0eW9u2/9EuT/71Wt22649z/+lj2r+8b3P7/csiXnW5y7Tt9HlrN3dclf1ux87tqZzLfrY20/7dklMtXl4Ok0bz+NHO7Ge76eOWXPncyTjy7hunHnm9fOvbXz/VwGsIIIAAAmMTaGecqs7w5nW4eZbx+NGMVluULm3zcoXpIy87yC+9yFuk5TWkfzIi8o4S7V/rGW+6qE/3zdfb8aavt+fX9i3Ne8bNMWf/Tj3yTGw79rn+ndqv7ZMfBDr3yOupW7s8w9ceP27ygbE8w9weP2PSPr9E5CmPdpw2hullC/khuvZhx/zwYJqhbJ9GpT2O92+vX7ttuq0+w3t8rXieEX7sutCnjquy3+3Y53Iu2bY2bd6mvK/JqRYvry0/9TiXa7fkSs5xHjfZnXvkWNq19LfWsnPH8DoCCCCAwIYJTK+7m3MNbxqb33/4mX7bVlsI/8UZFlNj2to+tv21hzi5kE2v8Z3ukwv9nDsAnFuEW1ev7Vu7tvjcmDN+XubQ+nzKdLQ+HG/bPnNjT41txnrF5LjveAj+yZPXnnLf2Ny99Wc6hundC9rdHqYf0nvxZFCn9p+8/eSnU91WXsPb+tlMVv6el2+ce7T2Uy7n2ubrlf1ux35MI63NtH+35NSpeNPx5nFam+nrt+RK2/fSf6Ha2fvMZw8EEEAAAQSeQ2D6Ses5d2n4bycL2tdNIrVFbrqwTt5+9c3/81/p0w+OnXverpn8qMnx8jZnvzki/uuj21BdOva5Rbj1r30xwVP71kzRY2dhpx+UOsem9WO6bWM6vhZy2mZ69vj4Q1jT6x5/38F4t/5Obyc3jffY89af6RjyDHN+kDDfax+Qa/e7zbNs0+u4T+3/2PEuvTfV7TV3aTi+F2/rX27zlnJ554t2N4t87Ref6VDbb8rlTNNXvVzZ7znHPtXmlpw6FW863nO51rR3Ta60fZ3hnZL2HAEEEEDgSQR+zOSWX/khqFPXyU4D/vmJAf30yRuXFsK/e9gvDdL0NlqTEPFWh7sv5HW57frAdk1g/tv81BdizDmDem4Rbse+tm/TW6z95BbsaPuBE15zTVGGaDxzey52mrDWLm9LNX28weFSi3w/b9k2veb21IcGp/ueet6OczyG/EBde++/nzw/vmSitTne/9Sx5rw21W3+4XVKG9M4+X62y37kHQaO7/nc+pcf+GsfPvyFk/GkgT/1xRZtv7njquz3nGOfanNLTp2KN+WcHFqb6eu35Mr0Gt6sDaceefeSdlzX8J4i5DUEEEAAgZh+yClvf5X3pD31yNthtUUl/834TpNG7fVzC3+arNbmj032a0/zUok0ZtkmzUUzHe2ayrzO9tSHrPJa3xb33LHz1lmtzfSsYzv2tX2bfrgpbw123L88S51fqtGOfa5/rR/Tbdsnt3mt8vQLJrJd8soz3q3d+053Pjyffggw72CRbfPfvaeM24ndn/NSO87xGH7+pA/tGsps+zbP2ftZP4/3P2r2pF+nus1rmM+NK79pLd9vY8izrMeP9t5x//7PyX5/7ninyXvH+51o+uqXqvp9rs+vPtCZ/t2SU5eOmRxam2k/bsmV6VdU538y2h/DLf7xXRp+dXvDFgEEEEAAgSmBNGr5NbFtocp/7f+OB5OQly/kGZW8t2z+m7e9n9uPmAaYvHdu4f8hhw+VtRh/9nDvzoyf99TMT8O3937TJPb0Hpt55ibPuuUntX/u4YNr7fq+3Df//Z9neo4f+eUMLXbe+D/vqDBtd23f8izq1NDmmeK8K0PGzmuQ2zWF7djn2Bz3N39v+7RtXvuZ5j5j5+UKU7Ob4zv1QcH85H7bv23zjhTXPNr+x2NI7eS9dtv7uc3rh48f7f3j/bNdey+3T3kc6zY/YJZm8mcf5ji3eVu0dslKxs/rcY//MMljtj4c9y+/Ga3dLi/b5Fns6ePcftM2x8+r+j3n2Kfa3JJTp+JNx5f8Wpvp67fkSv6xN83h7H9+w1vmQm6n48lvIGx/LE+P7zkCCCCAAAKvIpCGKc98ta8ZbovW8TY/gZ9fc3v8aO2ODcO0Xd5eLD/d3dqe2h7fazfv6drOSJ1qn0a5fQK8vT89Zj7/w2eOOW13Td9y//ySjPav8nb86XZ639vH2Ez7ks9bjPyCiekfA+31ts3381KQc49j3vkHwzWPdrxTY0hT2d7PbZqQ40d7/9T+7b3cPvUxV7ep69T3qT8M8pitD6f6N71vbc51u7780n6PjaWi34/1uR37VJtbcupUvHas3Ca/1mb6ej6/JVfe4sj0tmNMt2mKs50HAggggAACFwnkNYZpOnPxyH9R5zW3eYYs/5WYXxF87k4ObeE5ZRimB339h2tLP/wQL2/+n2do8wxhXht87l6i7/JwS7LPjIh/f2ifH2LJSy/yEov8d2Z+q1nGyH/Xpzk8fuQZ3D96+PavbJNjOnXromv6lsdKA5TXrObY05znGcH8EFeeqc5PxM9lM+33dJ+8fCHN2v97+IMk+5+Xf6SRP3f5SYuV9+FtsXIeT13S0do+tm0xTs1vGu685262yT8+jr8YIOM+tn97L7fXPppu80si8u4deb/b3Obvqed8/7FH68Op8eUZ2fygX2vzZyaB2mun9ps0O/v0ln7POfa5Ntfm1Ll4bYDJobVpr023t+RKnrnNa+Iz97MGZO3IPM5rfPOyB2d2p6Q9RwABBBBAYCACeeu4ZkCmX04xEAJDRQABBBBAAAEEENgrgTzj9S8nhnf6IcO9jtm4EEAAAQQQQAABBAYgkPdTzg+45WUg7ezu3xpg3IaIAAIIIIAAAgggMAiBZnLbNu9h3L5tbRAEhokAAggggAACCCCwZwL54b78YNt3RETe8D+/zc4DAQQQQAABBBBAAAEEEEAAAQQQQAABBBBAAAEEEEAAAQQQQAABBBBAAAEEEEAAAQQQQAABBBBAAAEEEEAAAQQQuCuB/MayT3r4drB/d/iWqv8cES+5aw/ud7B294LcfsyFw1765qgLu2/i7SmPU8/za3lfGRGfevh62HsPqvXp2m8zq+zvb3kIlt84mD8eCCCAAAIIILAxAp8wuWdrMxh7XdTb+HL7nyLixz8yVwzvs3v5Jq/8yt4PfYTXEm+1+erB8I6ghyXmUEwEEEAAAQS6IPCPJob3gyLi3SPix3bRs/pONAPVtn/zkUOMYHAah6883MIsb2M2/fkZEfG7IyLP+mfbNL0/5RFm1W+1vrx9deAr4o2ghyuw2AUBBBBAAIFtEPjyieHdRo+v72UzeNPtrz4TbgSD0zjkWB97/LqJRj75sYY7fm8EPex4+gwNAQQQQGBUAs3snNo2Ju29XOyfFxF5BvifHc70TS97+EER8asiIr/G9hsP7+c2f/8VEZHvHz+msV8rIvIayS+LiO9+uIb4mx+uGf3LEfEOh51eEBGfdrjO+Hse+pFfsJBfn/vUM3/tmN8QEfktZPn7f4yINzvu3MNX9F4yOLeO+cQhzx6z9bsZ018WEV96YJVj+ayHn3c5FfDCa8dxzzV/44nhzf8ItMd0/2p95DGm8dsx2zY1k5r7vIj41ohIXfzriPgTEfGjWqMT29eJiN8cEV8QEd9y2C+vX//sB23/4oPOp7u1PpzbTtt6jgACCCCAAAKdETi3gOfr7dHapNH6lIkBydeb4U0z+g+O3mv7te0XRkS2mz7aexn7T53ZP43Mz4yIr33k/bedBr3wfHrMD5/E/PQT+z1meCvGfOKQswxvXmLQxjHd5mUHT/1mtbZ/M9Kn+pSv/ZDJMf/JpNF0/2p95GGm8SeHjTc6fJNce/94m7r5edMdDs9/5OEPheP209//r4h4vcm+0/dOPZ809RQBBBBAAAEEeiPQro/M6zfbQt5ea31tr+dX1ebzPCv2iyLiPQ4f+HrtI7P7JQ+f6v/lEfFTD9v8vcVIU5zt26O9nteF5tm53xcRPy0ifsHhTG97//sfzsh9fUT8xoh4r4h4/6Ozr3+yBZyxbTHT4OUZ2i+a9O9nH+1/zvBWjPmcwTx3zNbvvGtCsvoDD2fPf/rB1E3/2PicozFc+rXFPdeftv8vmXD6jPbi5LUl9JGHOdW/PJP88sN7qY0/HRHvc9DGhx3+C5D7JaufNOlrntmdznd+9fKLD1rOM8X/fHK8/2myX8uJU3ny1D8wJmE9RQABBBBAAIF7EjhnsrIPzXDkNv91/LpHHUuj0NqkGZ6eGcumecuzfL21yfbt0V7L7Qe3Fw/bd5vsk+8fm9E01G3/f3i072O/tn2awXvniPjeQ6z8d3ieyWyPc1wqxtyO347VtueO2fqd2+M7JeRZy/yjId/Ly0ie8mhxz/XnzQ///s8zpq3tz50coL2W22p95GFa/Gn/3m/y+m+d9KU9zQ9cftuhzd9pL0ZEXqvd4uUfBmmcp4+8rOWbDm3SwKd2p49zczNt4zkCCCCAAAIIdErgsYW8GYTcpsk8fnzuxETk3R1OPd5z0uavTxq02HktbZ59mz7SWLf383reY3PyBpP380N3cx8t5tRA/cFJrD80CXSOS8WYp8efHPLiJQ15K7VjI5b7f9VkDNN4l543HnO3eR319DHdr1ofeZwWf8rrrxxeT3N/6trw3C/P+rZ92x1H/trktZ84HcTk+Qc8/AH0sYefN528nk/P6eGomV8RQAABBBBAoEcCjy3kzTTkGb78kNDx4z8cTESa0nOPNKv54aCMlZcmtEeL/RXthaPtY+9nzPb+1AwdhXiNX0/tk2d1/9UhXp7tbR/+OselYszn+nzumK3f51id2+81ABy90OJe2uaHCU/dzaLtt4Q+sqst/pRXfsCsvT5nmyY2H/lBx2yfH1K85nEt42uOZR8EEEAAAQQQKCbw2ELeDMW/OHPMvJ402+S3cT32yPezXd6BoT1a7KmZae/l9tb3p7Ha83Mx85KJ9t4XH84cnuOy5JjPHbP17Ryrc/u1cZ/btrin7sOb99vNu2TkB8TOPdr+S+gjj9niT8edGmqvz9n+2kPn27yd+6Ph3Bjb69cybvvbIoAAAggggMCKBB5byJuhmBqOaVeXPNt56diX3p/2sz1/bJ+8U0N7/7c98i/sJcecxrH1ofU5t+21c/Pw2BxO4xw/vxT3uP3x75f2v4VVHutU/LwNW76ed+5oHyh7bPvDDp3OSyByv+zTNY9rGV9zLPsggAACCCCAQDGBxxbyU4Zjevjp9ax554ZTj7yzQotz6hrecyau7XPt+6f68ljM/NBS/rs72+SHlpqxyt+nj1vG/F2H+P92GvDwPK9HbfcGPj7mY/3O3R+bwxOHevVLl+K+uuGZJ5f2v4VVHvJU/L97eD0vPzm+zrZ1860Od19ITbZrnvNDdS3e27WGR9u/d/gQY54NPr4387WMjw7hVwQQQAABBBBYg8BjC3kzCOdM56+ZmIi8G0MzF20c+fv0Lg3T60Avxb71/daH6fZSzOkn+Vvb3E4ft4w57wTR4rYPU7XY01t/HR+z7XNuHh6bwxb/1PZS3FP7TF+7tP8trPI4p+LnnRna639s2pnD8zecXJOd14y3W+Hl3S3afn/hxAch884geZuzbHPqzh/TbyQ8vlvJiW54CQEEEEAAAQR6IvCYWWoG4ZzRyrsr/OOJkcj77ua3gOVZ3dxO78Ob39DVzEeOTrav1QAABD9JREFU/1LsW98/xfhSzNwnvx2utWvbaaxbxvypk9j5BQ4//3D3i48+nN1thiuPO320fpybh8fmcBrn+PmluMftj3+/tP8trPJYp+Lnhwyn4/2zh/sR59ncvAd0fsCu7febJh3O/ab32s17+Sb/1Gqa4ekZ/VNfWjHV+e96uBdwGuTc1wMBBBBAAAEENkBgah6Ou9uMwzmjle3f4sj0tn2m2zQL2W76aO+fi33r+9NjteeXYma7t46I/Nay1ja3x49rx5yxp/e0nR7jzx8ZuekxW7tzrB6bw2mc4+eX4h63P/59zv7XsspjnYufHPPDZ+39U9tPPO7sYW6n10kf75d/cPz2E/vlS3/4zPHONPcyAggggAACCPRE4DGz1AzBOaPVxpFnbj/w4Wzl3zh8KCivgcx/J+c1nPlv7emZ3bbPpdi3vt+OM91eitnafsyRuWmvT7fXjDn3z3vA/rnDN4Ilp7xDQpqsvIb33Fxc6ve5/ab9PfX8UtxT+0xfm7v/tawei//6D3885NdD5yUz+YURyfJrIiL/cDh1T+DW7zzT+xEPX2aSX3ed++VdH3K/zzx8019rd7zN/f7o4Z7HuU9eQzy9zd5xe78jgAACCCCAAAIIIHCRQDO8T/lykYtBNUAAAQQQQAABBBBAoAcC+TXVzfDm9c4eCCCAAAIIIIAAAgjshkBekvCSieHNyw08EEAAAQQQQAABBBDYDYF2Zrdt32c3IzMQBBBAAAEEEEAAAQQOd8nID6Hltbu/DhEEEEAAAQQQQAABBBBAAAEEEEAAAQQQQAABBBBAAAEEEEAAAQQQQAABBBBAAAEEEEAAAQQQQAABBBBAAAEEEEAAAQQQQAABBBBAAAEEEEAAAQQQQAABBBBAAAEEEEAAAQQQQAABBBBAAAEEEEAAAQQQQAABBBBAAAEEEEAAAQQQQAABBBBAAAEEEEAAAQQQQAABBBBAAAEEEEAAAQQQQAABBBBAAAEEEEAAAQQQQAABBBBAAAEEEEAAAQQQQAABBBBAAAEEEEAAAQQQQAABBBBAAAEEEEAAAQQQQAABBBBAAAEEEEAAAQQQQAABBBBAAAEEEEAAAQQQQAABBBBAAAEEEEAAAQQQQAABBBBAAAEEEEAAAQQQQAABBBBAAAEEEEAAAQQQQAABBBBAAAEEEEAAAQQQQAABBBBAAAEEEEAAAQQQQAABBBBAAAEEEEAAAQQQQAABBBBAAAEEEEAAAQQQQAABBBBAAAEEEEAAAQQQQAABBBBAAAEEEEAAAQQQQAABBBBAAAEEEEAAAQQQQAABBBBAAAEEEEAAAQQQQAABBBBAAAEEEEAAAQQQQAABBBBAAAEEEEAAAQQQQAABBBBAAAEEEEAAAQQQQAABBBBAAAEEEEAAAQQQQAABBBBAAAEEEEAAAQQQQAABBBBAAAEEEEAAAQQQQAABBBBAAIFHCPz/nBj6+yS5orwAAAAASUVORK5CYII=;shadow=0;" parent="1" vertex="1">
          <mxGeometry x="840" y="180" width="70" height="70" as="geometry" />
        </mxCell>
        <mxCell id="nbxXIKNAI8TdDKotA7mi-1" value="Indicadores de tinta" style="rounded=0;whiteSpace=wrap;html=1;" vertex="1" parent="1">
          <mxGeometry x="690" y="240" width="120" height="60" as="geometry" />
        </mxCell>
        <mxCell id="nbxXIKNAI8TdDKotA7mi-2" value="" style="endArrow=classic;html=1;rounded=0;entryX=0.5;entryY=0;entryDx=0;entryDy=0;" edge="1" parent="1" target="nbxXIKNAI8TdDKotA7mi-1">
          <mxGeometry width="50" height="50" relative="1" as="geometry">
            <mxPoint x="750" y="210" as="sourcePoint" />
            <mxPoint x="800" y="210.69" as="targetPoint" />
          </mxGeometry>
        </mxCell>
        <mxCell id="nbxXIKNAI8TdDKotA7mi-5" value="&lt;div&gt;tabla con predicciones e indicadores&lt;/div&gt;" style="text;html=1;align=center;verticalAlign=middle;whiteSpace=wrap;rounded=0;" vertex="1" parent="1">
          <mxGeometry x="700" y="380" width="100" height="30" as="geometry" />
        </mxCell>
        <mxCell id="nbxXIKNAI8TdDKotA7mi-6" value="" style="endArrow=classic;html=1;rounded=0;" edge="1" parent="1">
          <mxGeometry width="50" height="50" relative="1" as="geometry">
            <mxPoint x="748.09" y="300" as="sourcePoint" />
            <mxPoint x="748" y="370" as="targetPoint" />
          </mxGeometry>
        </mxCell>
      </root>
    </mxGraphModel>
  </diagram>
</mxfile>
